<?xml version="1.0" encoding="utf-8"?><!-- Generator: Iparigrafika Gear Generator by Abel Vincze http://geargenerator.com/ --><svg version="1.2" class="svggear" xmlns="http://www.w3.org/2000/svg" xmlns:xlink="http://www.w3.org/1999/xlink" x="0px" y="0px" width="120px" height="120px" viewBox="-60 -60 120 120" overflow="scroll" xml:space="preserve"><polygon id="gearpoly1" data-id="1" class="gear" fill="#ddd" stroke="#444" stroke-width="1" stroke-miterlimit="10" points="38.5,0 47.2831,-0.0001 47.3407,-0.0023 47.4556,-0.0105 47.6274,-0.0287 47.8556,-0.0609 48.1392,-0.1111 48.4772,-0.1831 48.8684,-0.2808 49.3113,-0.408 49.8043,-0.5684 50.3455,-0.7655 50.9329,-1.003 51.5643,-1.2843 52.2373,-1.6128 52.9492,-1.9915 53.6974,-2.4236 54.4789,-2.9122 55.2906,-3.4599 56.1293,-4.0695 56.9916,-4.7434 57.874,-5.484 58.7729,-6.2935 59.5712,-7.1604 58.5882,-12.939 57.5482,-13.4931 56.4323,-13.9599 55.3546,-14.3672 54.318,-14.7181 53.3249,-15.016 52.3777,-15.2646 51.4786,-15.4672 50.6297,-15.6277 49.8325,-15.7497 49.0888,-15.8372 48.3999,-15.8939 47.767,-15.9238 47.1911,-15.9309 46.6728,-15.9193 46.2127,-15.8928 45.8112,-15.8557 45.4684,-15.8119 45.1842,-15.7655 44.9582,-15.7205 44.79,-15.6809 44.6788,-15.6506 44.6238,-15.6336 36.3346,-12.7297 31.1472,-22.6297 38.2528,-27.7924 38.2981,-27.828 38.3862,-27.9022 38.5145,-28.0179 38.6802,-28.1781 38.8801,-28.3854 39.1112,-28.6423 39.3703,-28.9513 39.6539,-29.3145 39.9584,-29.734 40.2804,-30.2117 40.616,-30.7491 40.9615,-31.3478 41.3129,-32.009 41.6663,-32.7339 42.0175,-33.5233 42.3626,-34.3779 42.6974,-35.2981 43.0176,-36.2842 43.3191,-37.3363 43.5977,-38.4542 43.849,-39.6374 43.9854,-40.8079 39.7935,-44.9052 38.6264,-44.7421 37.4492,-44.4639 36.338,-44.1599 35.2931,-43.8345 34.3145,-43.4918 33.4022,-43.1361 32.5557,-42.7716 31.7745,-42.4024 31.0579,-42.0326 30.4049,-41.6662 29.8142,-41.3072 29.2846,-40.9594 28.8144,-40.6266 28.402,-40.3125 28.0453,-40.0207 27.7423,-39.7547 27.4907,-39.5178 27.288,-39.3131 27.1317,-39.1439 27.0189,-39.013 26.9467,-38.9232 26.9122,-38.8771 21.913,-31.6555 11.8972,-36.6157 14.6112,-44.969 14.6269,-45.0244 14.6546,-45.1362 14.6904,-45.3053 14.7302,-45.5322 14.7702,-45.8174 14.8061,-46.1611 14.8341,-46.5634 14.85,-47.0239 14.8498,-47.5423 14.8296,-48.118 14.7852,-48.7501 14.7128,-49.4375 14.6084,-50.179 14.4682,-50.9731 14.2884,-51.8182 14.0653,-52.7124 13.7952,-53.6537 13.4746,-54.6397 13.1002,-55.6681 12.6685,-56.7361 12.1763,-57.8411 11.5986,-58.8683 5.799,-59.7191 4.9506,-58.9012 4.1618,-57.9841 3.4415,-57.085 2.7875,-56.2076 2.1972,-55.3552 1.6681,-54.5312 1.1976,-53.7387 0.7826,-52.9809 0.4202,-52.2605 0.1073,-51.5802 -0.1596,-50.9426 -0.3836,-50.3499 -0.5684,-49.8043 -0.7174,-49.3078 -0.8345,-48.8621 -0.9232,-48.4688 -0.9875,-48.1292 -1.0312,-47.8445 -1.0582,-47.6157 -1.0725,-47.4435 -1.0781,-47.3284 -1.079,-47.2708 -0.8786,-38.49 -11.8972,-36.6157 -14.6114,-44.9689 -14.6312,-45.023 -14.6745,-45.1297 -14.745,-45.2875 -14.8461,-45.4945 -14.9815,-45.7487 -15.1544,-46.048 -15.3683,-46.3898 -15.6261,-46.7718 -15.9309,-47.1911 -16.2857,-47.6449 -16.6931,-48.1301 -17.1557,-48.6437 -17.676,-49.1822 -18.2562,-49.7423 -18.8984,-50.3203 -19.6045,-50.9126 -20.3763,-51.5153 -21.2152,-52.1246 -22.1226,-52.7365 -23.0997,-53.3468 -24.1473,-53.9515 -25.2184,-54.4429 -30.4105,-51.7223 -30.6161,-50.562 -30.7152,-49.3564 -30.7695,-48.2057 -30.7829,-47.1113 -30.7594,-46.0748 -30.7031,-45.0972 -30.618,-44.1795 -30.5082,-43.3224 -30.378,-42.5266 -30.2313,-41.7923 -30.0724,-41.1196 -29.9053,-40.5084 -29.734,-39.9584 -29.5628,-39.4691 -29.3955,-39.0398 -29.2361,-38.6694 -29.0885,-38.3569 -28.9566,-38.1009 -28.8439,-37.8999 -28.7543,-37.7522 -28.6911,-37.6558 -28.658,-37.6087 -23.3346,-30.6226 -31.1472,-22.6297 -38.2529,-27.7923 -38.3008,-27.8243 -38.3985,-27.8852 -38.5483,-27.9715 -38.7518,-28.0795 -39.0107,-28.2056 -39.3265,-28.346 -39.7004,-28.4969 -40.1335,-28.6544 -40.6266,-28.8144 -41.1803,-28.973 -41.7952,-29.1261 -42.4713,-29.2697 -43.2088,-29.3996 -44.0074,-29.5116 -44.8667,-29.6018 -45.7861,-29.6659 -46.7647,-29.6999 -47.8015,-29.6997 -48.8953,-29.6614 -50.0445,-29.5808 -51.2475,-29.4542 -52.4029,-29.2222 -55.0042,-23.9694 -54.4885,-22.9098 -53.8601,-21.8762 -53.2276,-20.9133 -52.5952,-20.0201 -51.9669,-19.1953 -51.3467,-18.4376 -50.7385,-17.7452 -50.146,-17.1163 -49.5728,-16.549 -49.0225,-16.0412 -48.4986,-15.5904 -48.0041,-15.1941 -47.5423,-14.8498 -47.1162,-14.5546 -46.7285,-14.3056 -46.3818,-14.0996 -46.0787,-13.9336 -45.8215,-13.804 -45.6122,-13.7076 -45.4529,-13.6408 -45.3451,-13.5999 -45.2906,-13.5813 -36.8776,-11.0584 -38.5,0 -47.2831,0.0001 -47.3407,0.0023 -47.4556,0.0105 -47.6274,0.0287 -47.8556,0.0609 -48.1392,0.1111 -48.4772,0.1831 -48.8684,0.2808 -49.3113,0.408 -49.8043,0.5684 -50.3455,0.7655 -50.9329,1.003 -51.5643,1.2843 -52.2373,1.6128 -52.9492,1.9915 -53.6974,2.4236 -54.4789,2.9122 -55.2906,3.4599 -56.1293,4.0695 -56.9916,4.7434 -57.874,5.484 -58.7729,6.2935 -59.5712,7.1604 -58.5882,12.939 -57.5482,13.4931 -56.4323,13.9599 -55.3546,14.3672 -54.318,14.7181 -53.3249,15.016 -52.3777,15.2646 -51.4786,15.4672 -50.6297,15.6277 -49.8325,15.7497 -49.0888,15.8372 -48.3999,15.8939 -47.767,15.9238 -47.1911,15.9309 -46.6728,15.9193 -46.2127,15.8928 -45.8112,15.8557 -45.4684,15.8119 -45.1842,15.7655 -44.9582,15.7205 -44.79,15.6809 -44.6788,15.6506 -44.6238,15.6336 -36.3346,12.7297 -31.1472,22.6297 -38.2528,27.7924 -38.2981,27.828 -38.3862,27.9022 -38.5145,28.0179 -38.6802,28.1781 -38.8801,28.3854 -39.1112,28.6423 -39.3703,28.9513 -39.6539,29.3145 -39.9584,29.734 -40.2804,30.2117 -40.616,30.7491 -40.9615,31.3478 -41.3129,32.009 -41.6663,32.7339 -42.0175,33.5233 -42.3626,34.3779 -42.6974,35.2981 -43.0176,36.2842 -43.3191,37.3363 -43.5977,38.4542 -43.849,39.6374 -43.9854,40.8079 -39.7935,44.9052 -38.6264,44.7421 -37.4492,44.4639 -36.338,44.1599 -35.2931,43.8345 -34.3145,43.4918 -33.4022,43.1361 -32.5557,42.7716 -31.7745,42.4024 -31.0579,42.0326 -30.4049,41.6662 -29.8142,41.3072 -29.2846,40.9594 -28.8144,40.6266 -28.402,40.3125 -28.0453,40.0207 -27.7423,39.7547 -27.4907,39.5178 -27.288,39.3131 -27.1317,39.1439 -27.0189,39.013 -26.9467,38.9232 -26.9122,38.8771 -21.913,31.6555 -11.8972,36.6157 -14.6112,44.969 -14.6269,45.0244 -14.6546,45.1362 -14.6904,45.3053 -14.7302,45.5322 -14.7702,45.8174 -14.8061,46.1611 -14.8341,46.5634 -14.85,47.0239 -14.8498,47.5423 -14.8296,48.118 -14.7852,48.7501 -14.7128,49.4375 -14.6084,50.179 -14.4682,50.9731 -14.2884,51.8182 -14.0653,52.7124 -13.7952,53.6537 -13.4746,54.6397 -13.1002,55.6681 -12.6685,56.7361 -12.1763,57.8411 -11.5986,58.8683 -5.799,59.7191 -4.9506,58.9012 -4.1618,57.9841 -3.4415,57.085 -2.7875,56.2076 -2.1972,55.3552 -1.6681,54.5312 -1.1976,53.7387 -0.7826,52.9809 -0.4202,52.2605 -0.1073,51.5802 0.1596,50.9426 0.3836,50.3499 0.5684,49.8043 0.7174,49.3078 0.8345,48.8621 0.9232,48.4688 0.9875,48.1292 1.0312,47.8445 1.0582,47.6157 1.0725,47.4435 1.0781,47.3284 1.079,47.2708 0.8786,38.49 11.8972,36.6157 14.6114,44.9689 14.6312,45.023 14.6745,45.1297 14.745,45.2875 14.8461,45.4945 14.9815,45.7487 15.1544,46.048 15.3683,46.3898 15.6261,46.7718 15.9309,47.1911 16.2857,47.6449 16.6931,48.1301 17.1557,48.6437 17.676,49.1822 18.2562,49.7423 18.8984,50.3203 19.6045,50.9126 20.3763,51.5153 21.2152,52.1246 22.1226,52.7365 23.0997,53.3468 24.1473,53.9515 25.2184,54.4429 30.4105,51.7223 30.6161,50.562 30.7152,49.3564 30.7695,48.2057 30.7829,47.1113 30.7594,46.0748 30.7031,45.0972 30.618,44.1795 30.5082,43.3224 30.378,42.5266 30.2313,41.7923 30.0724,41.1196 29.9053,40.5084 29.734,39.9584 29.5628,39.4691 29.3955,39.0398 29.2361,38.6694 29.0885,38.3569 28.9566,38.1009 28.8439,37.8999 28.7543,37.7522 28.6911,37.6558 28.658,37.6087 23.3346,30.6226 31.1472,22.6297 38.2529,27.7923 38.3008,27.8243 38.3985,27.8852 38.5483,27.9715 38.7518,28.0795 39.0107,28.2056 39.3265,28.346 39.7004,28.4969 40.1335,28.6544 40.6266,28.8144 41.1803,28.973 41.7952,29.1261 42.4713,29.2697 43.2088,29.3996 44.0074,29.5116 44.8667,29.6018 45.7861,29.6659 46.7647,29.6999 47.8015,29.6997 48.8953,29.6614 50.0445,29.5808 51.2475,29.4542 52.4029,29.2222 55.0042,23.9694 54.4885,22.9098 53.8601,21.8762 53.2276,20.9133 52.5952,20.0201 51.9669,19.1953 51.3467,18.4376 50.7385,17.7452 50.146,17.1163 49.5728,16.549 49.0225,16.0412 48.4986,15.5904 48.0041,15.1941 47.5423,14.8498 47.1162,14.5546 46.7285,14.3056 46.3818,14.0996 46.0787,13.9336 45.8215,13.804 45.6122,13.7076 45.4529,13.6408 45.3451,13.5999 45.2906,13.5813 36.8776,11.0584 "/><g class="guides"><polyline fill="none" stroke="#444" stroke-width="0.5" stroke-miterlimit="10" points="10,0 -10,0"/><polyline fill="none" stroke="#444" stroke-width="0.5" stroke-miterlimit="10" points="0,10 0,-10"/></g><circle fill="#c00" class="firstmarker" stroke="none" stroke-miterlimit="10" cx="49.2919" cy="-8.3848" r="3.925"/><g class="geartext"><g class="text"><polyline fill="none" stroke="#444" stroke-width="0.5" stroke-linecap="square" stroke-miterlimit="1"  points="-15.82 -24.7 -16.59 -24.19 -17.34 -23.66 -18.07 -23.11 -18.78 -22.53 "/><polyline fill="none" stroke="#444" stroke-width="0.5" stroke-linecap="square" stroke-miterlimit="1"  points="-16.25 -22.18 -18.42 -25.14 "/><polyline fill="none" stroke="#444" stroke-width="0.5" stroke-linecap="square" stroke-miterlimit="1"  points="-16.81 -26.24 -17.11 -24.95 -17.34 -23.66 -17.5 -22.39 -17.61 -21.12 "/><polyline fill="none" stroke="#444" stroke-width="0.5" stroke-linecap="square" stroke-miterlimit="1"  points="-14.84 -23.15 -16.07 -23.44 -17.34 -23.66 -18.63 -23.83 -19.95 -23.94 "/><polyline fill="none" stroke="#444" stroke-width="0.5" stroke-linecap="square" stroke-miterlimit="1"  points="-15.14 -27.24 -14.7 -28.52 -12.18 -23.63 "/><polyline fill="none" stroke="#444" stroke-width="0.5" stroke-linecap="square" stroke-miterlimit="1"  points="-11.44 -24 -12.18 -23.63 -12.92 -23.24 "/><polyline fill="none" stroke="#444" stroke-width="0.5" stroke-linecap="square" stroke-miterlimit="1"  points="-3.24 -31.92 -2.68 -26.45 -3.69 -27.71 -4.78 -28.94 -5.95 -30.13 -7.19 -31.27 -5.96 -25.91 "/><polyline fill="none" stroke="#444" stroke-width="0.5" stroke-linecap="square" stroke-miterlimit="1"  points="2.61 -30.14 1.67 -30.2 0.72 -30.24 -0.22 -30.25 -1.17 -30.23 "/><polyline fill="none" stroke="#444" stroke-width="0.5" stroke-linecap="square" stroke-miterlimit="1"  points="2.45 -28.31 1.57 -28.37 0.68 -28.41 -0.21 -28.42 -1.1 -28.4 "/><polyline fill="none" stroke="#444" stroke-width="0.5" stroke-linecap="square" stroke-miterlimit="1"  points="4.62 -30.82 5.75 -31.56 4.76 -26.15 "/><polyline fill="none" stroke="#444" stroke-width="0.5" stroke-linecap="square" stroke-miterlimit="1"  points="5.58 -25.99 4.76 -26.15 3.94 -26.29 "/><polyline fill="none" stroke="#444" stroke-width="0.5" stroke-linecap="square" stroke-miterlimit="1"  points="9.88 -25.66 8.78 -25.09 7.99 -25.36 7.44 -26.47 8.43 -30 9.64 -30.6 10.59 -30.28 11.2 -29.08 9.88 -25.66 "/><polyline fill="none" stroke="#444" stroke-width="0.5" stroke-linecap="square" stroke-miterlimit="1"  points="16.23 -24.43 16.99 -23.91 17.73 -23.37 18.45 -22.81 19.75 -22.91 20.35 -23.61 20.18 -24.94 19.39 -25.56 18.58 -26.16 17.75 -26.72 14.71 -22.14 "/><polyline fill="none" stroke="#444" stroke-width="0.5" stroke-linecap="square" stroke-miterlimit="1"  points="18.58 -19.01 21.14 -21.63 "/><polyline fill="none" stroke="#444" stroke-width="0.5" stroke-linecap="square" stroke-miterlimit="1"  points="21.78 -22.29 22.42 -22.95 "/><polyline fill="none" stroke="#444" stroke-width="0.5" stroke-linecap="square" stroke-miterlimit="1"  points="22.55 -15.74 21.31 -15.89 21.52 -17.12 25.11 -19.97 "/><polyline fill="none" stroke="#444" stroke-width="0.5" stroke-linecap="square" stroke-miterlimit="1"  points="24.81 -17.31 24.25 -18.08 23.68 -18.83 23.08 -19.56 22.45 -20.27 "/><polyline fill="none" stroke="#444" stroke-width="0.5" stroke-linecap="square" stroke-miterlimit="1"  points="24.25 -10.89 23.9 -11.64 23.53 -12.38 23.13 -13.11 23.49 -14.3 25.06 -15.25 26.32 -14.92 26.77 -14.09 27.2 -13.24 27.6 -12.39 "/><polyline fill="none" stroke="#444" stroke-width="0.5" stroke-linecap="square" stroke-miterlimit="1"  points="26.6 -9.99 27.77 -9.45 28.93 -8.85 29.19 -7.94 28.53 -6.81 25.86 -6.17 "/><polyline fill="none" stroke="#444" stroke-width="0.5" stroke-linecap="square" stroke-miterlimit="1"  points="24.89 -9.35 30.03 -11.28 "/><polyline fill="none" stroke="#444" stroke-width="0.5" stroke-linecap="square" stroke-miterlimit="1"  points="26.58 -0.42 26.58 0.42 26.55 1.25 26.5 2.07 27.34 3 30.98 3.4 31.99 2.5 32.05 1.5 32.08 0.5 32.08 -0.5 "/><polyline fill="none" stroke="#444" stroke-width="0.5" stroke-linecap="square" stroke-miterlimit="1"  points="32.08 0.5 26.58 0.42 "/><polyline fill="none" stroke="#444" stroke-width="0.5" stroke-linecap="square" stroke-miterlimit="1"  points="28.93 8.85 29.19 7.94 29.42 7.03 29.63 6.1 29.8 5.17 "/><polyline fill="none" stroke="#444" stroke-width="0.5" stroke-linecap="square" stroke-miterlimit="1"  points="27.17 8.31 27.42 7.46 27.64 6.6 27.83 5.73 28 4.86 "/><polyline fill="none" stroke="#444" stroke-width="0.5" stroke-linecap="square" stroke-miterlimit="1"  points="23.53 12.38 23.9 11.64 24.25 10.89 24.58 10.12 24.89 9.35 26.6 9.99 27.12 11.17 26.76 12.01 26.37 12.84 26.77 14.09 27.58 14.51 28.85 14.05 29.27 13.14 29.67 12.22 29.18 10.96 "/><polyline fill="none" stroke="#444" stroke-width="0.5" stroke-linecap="square" stroke-miterlimit="1"  points="22.38 18.97 21.77 19.66 21.15 20.33 20.5 20.98 20.46 22.28 21.08 22.96 22.42 22.95 23.13 22.23 23.81 21.5 24.47 20.75 20.28 17.19 "/><polyline fill="none" stroke="#444" stroke-width="0.5" stroke-linecap="square" stroke-miterlimit="1"  points="15.94 25.71 16.74 25.2 17.52 24.66 18.28 24.1 19.03 23.52 "/><polyline fill="none" stroke="#444" stroke-width="0.5" stroke-linecap="square" stroke-miterlimit="1"  points="14.98 24.15 15.73 23.67 16.46 23.17 17.17 22.64 17.87 22.09 "/><polyline fill="none" stroke="#444" stroke-width="0.5" stroke-linecap="square" stroke-miterlimit="1"  points="11.53 29.94 12.46 29.56 13.38 29.16 14.28 28.73 15.17 28.27 14.31 26.65 13.47 27.09 12.62 27.49 11.75 27.87 10.54 27.37 9.88 25.66 10.33 24.5 11.09 24.16 11.84 23.8 13.01 24.23 "/><polyline fill="none" stroke="#444" stroke-width="0.5" stroke-linecap="square" stroke-miterlimit="1"  points="4.35 29.01 3.44 29.13 2.53 29.22 1.62 29.29 0.72 30.24 0.75 31.16 1.77 32.03 2.77 31.96 3.77 31.86 4.76 31.73 3.94 26.29 "/><polyline fill="none" stroke="#444" stroke-width="0.5" stroke-linecap="square" stroke-miterlimit="1"  points="-1.03 26.56 -1.1 28.4 -2.11 30.18 -3.24 31.92 -3.99 29.99 -4.63 28.04 -4.33 26.23 "/><polyline fill="none" stroke="#444" stroke-width="0.5" stroke-linecap="square" stroke-miterlimit="1"  points="-1.1 28.4 -1.98 28.35 -2.87 28.27 -3.75 28.17 -4.63 28.04 "/><polyline fill="none" stroke="#444" stroke-width="0.5" stroke-linecap="square" stroke-miterlimit="1"  points="-10.4 28.4 -9.51 28.72 -8.61 29 -7.7 29.25 -6.78 29.48 "/><polyline fill="none" stroke="#444" stroke-width="0.5" stroke-linecap="square" stroke-miterlimit="1"  points="-9.77 26.68 -8.93 26.98 -8.09 27.24 -7.23 27.48 -6.37 27.69 "/><polyline fill="none" stroke="#444" stroke-width="0.5" stroke-linecap="square" stroke-miterlimit="1"  points="-12.53 28.54 -13.81 28.96 -11.44 24 "/><polyline fill="none" stroke="#444" stroke-width="0.5" stroke-linecap="square" stroke-miterlimit="1"  points="-12.18 23.63 -11.44 24 -10.68 24.34 "/><polyline fill="none" stroke="#444" stroke-width="0.5" stroke-linecap="square" stroke-miterlimit="1"  points="-18.07 23.11 -17.34 23.66 -16.59 24.19 -15.82 24.7 -15.52 25.97 -15.99 26.75 -17.31 27.01 -18.14 26.46 -18.96 25.88 -19.2 24.55 -17.5 22.39 -16.25 22.18 -15.03 21.92 -14.34 22.38 "/></g></g><g class="guides gearguides" opacity="0.2"><circle class="pitch" fill="none" stroke="#f00" stroke-miterlimit="10" cx="0" cy="0" r="50"/><circle class="outer" fill="none" stroke="#ccc" stroke-miterlimit="10" stroke-dasharray="2,2" cx="0" cy="0" r="60"/><circle class="base" fill="none" stroke="#00f" stroke-miterlimit="10" stroke-dasharray="2,2" cx="0" cy="0" r="47.28"/></g></svg>