<?xml version="1.0" encoding="utf-8"?><!-- Generator: Iparigrafika Gear Generator by Abel Vincze http://geargenerator.com/ --><svg version="1.2" class="svggear" xmlns="http://www.w3.org/2000/svg" xmlns:xlink="http://www.w3.org/1999/xlink" x="0px" y="0px" width="380px" height="380px" viewBox="-190 -190 380 380" overflow="scroll" xml:space="preserve"><polygon id="gearpoly0" data-id="0" class="gear" fill="#ddd" stroke="#444" stroke-width="1" stroke-miterlimit="10" points="168.5,0 170.2193,-0.0003 170.2561,-0.0011 170.3088,-0.0028 170.3776,-0.0057 170.4623,-0.0101 170.5629,-0.0163 170.6794,-0.0245 170.8118,-0.0352 170.96,-0.0486 171.124,-0.0651 171.3037,-0.0849 171.4991,-0.1083 171.7102,-0.1357 171.9368,-0.1673 172.1789,-0.2035 172.4365,-0.2446 172.7094,-0.2908 172.9976,-0.3425 173.3011,-0.4 173.6196,-0.4635 173.9532,-0.5334 174.3017,-0.61 174.665,-0.6935 175.0431,-0.7843 175.4358,-0.8826 175.843,-0.9888 176.2647,-1.1031 176.7005,-1.2258 177.1506,-1.3572 177.6146,-1.4976 178.0926,-1.6473 178.5843,-1.8066 179.0896,-1.9757 179.6083,-2.1549 180.1404,-2.3445 180.6856,-2.5447 181.2439,-2.7559 181.8149,-2.9783 182.3986,-3.2122 182.9949,-3.4578 183.6034,-3.7155 184.2241,-3.9854 184.8568,-4.2678 185.5013,-4.563 186.1573,-4.8713 186.8247,-5.1928 187.5034,-5.5279 188.193,-5.8768 188.8934,-6.2397 189.6044,-6.6169 189.8713,-6.9918 189.4736,-14.133 189.1668,-14.476 188.4183,-14.7719 187.6819,-15.0548 186.9578,-15.325 186.2461,-15.5826 185.5471,-15.8281 184.8609,-16.0616 184.1877,-16.2834 183.5276,-16.4939 182.8807,-16.6932 182.2473,-16.8817 181.6275,-17.0596 181.0214,-17.2272 180.4292,-17.3848 179.851,-17.5327 179.2869,-17.6712 178.7371,-17.8006 178.2016,-17.9211 177.6807,-18.033 177.1743,-18.1367 176.6827,-18.2324 176.2059,-18.3204 175.7441,-18.401 175.2973,-18.4746 174.8656,-18.5414 174.4491,-18.6017 174.0479,-18.6558 173.6621,-18.704 173.2917,-18.7467 172.9368,-18.7841 172.5976,-18.8165 172.2739,-18.8443 171.966,-18.8677 171.6738,-18.8871 171.3974,-18.9027 171.1369,-18.915 170.8923,-18.9241 170.6635,-18.9303 170.4508,-18.9341 170.2539,-18.9357 170.0731,-18.9354 169.9083,-18.9335 169.7596,-18.9304 169.6268,-18.9263 169.5101,-18.9216 169.4094,-18.9166 169.3248,-18.9115 169.2561,-18.9068 169.2035,-18.9026 169.1668,-18.8993 167.4582,-18.7087 165.9401,-29.2597 167.6332,-29.5586 167.6693,-29.5658 167.721,-29.5766 167.7882,-29.5914 167.8708,-29.6104 167.9688,-29.6339 168.0821,-29.6623 168.2107,-29.6958 168.3543,-29.7348 168.5129,-29.7795 168.6865,-29.8301 168.8749,-29.8872 169.0779,-29.9508 169.2956,-30.0213 169.5278,-30.099 169.7743,-30.1841 170.0351,-30.2771 170.3099,-30.378 170.5988,-30.4873 170.9014,-30.6052 171.2178,-30.732 171.5477,-30.8679 171.8911,-31.0132 172.2476,-31.1683 172.6173,-31.3333 172.9999,-31.5086 173.3953,-31.6944 173.8032,-31.8909 174.2236,-32.0985 174.6562,-32.3174 175.1009,-32.5478 175.5575,-32.79 176.0257,-33.0442 176.5055,-33.3108 176.9965,-33.5899 177.4987,-33.8818 178.0118,-34.1867 178.5356,-34.5049 179.0698,-34.8366 179.6143,-35.182 180.1689,-35.5414 180.7333,-35.915 181.3073,-36.303 181.8907,-36.7057 182.4833,-37.1232 183.0847,-37.5557 183.6949,-38.0036 184.3134,-38.4669 184.9402,-38.9459 185.5749,-39.4408 185.7726,-39.8564 184.1409,-46.8201 183.7792,-47.1046 182.9907,-47.266 182.2163,-47.4167 181.4563,-47.557 180.7108,-47.6872 179.9797,-47.8075 179.2634,-47.9184 178.5619,-48.0199 177.8752,-48.1125 177.2036,-48.1965 176.5471,-48.2721 175.9058,-48.3397 175.2798,-48.3995 174.6692,-48.4519 174.0741,-48.4972 173.4945,-48.5356 172.9306,-48.5675 172.3824,-48.5932 171.8499,-48.613 171.3333,-48.6271 170.8325,-48.636 170.3477,-48.6399 169.8788,-48.6391 169.426,-48.634 168.9893,-48.6248 168.5687,-48.6118 168.1642,-48.5955 167.7758,-48.576 167.4037,-48.5537 167.0477,-48.5289 166.708,-48.5019 166.3844,-48.4731 166.0771,-48.4427 165.786,-48.411 165.5111,-48.3784 165.2524,-48.3452 165.0099,-48.3117 164.7836,-48.2782 164.5733,-48.2449 164.3793,-48.2123 164.2012,-48.1806 164.0393,-48.1502 163.8933,-48.1213 163.7633,-48.0942 163.6491,-48.0693 163.5509,-48.0468 163.4684,-48.0272 163.4016,-48.0105 163.3505,-47.9973 163.315,-47.9877 161.6653,-47.5033 158.3382,-57.6304 159.9537,-58.2187 159.988,-58.2321 160.037,-58.2517 160.1006,-58.2779 160.1787,-58.311 160.2711,-58.3512 160.3778,-58.3988 160.4985,-58.4542 160.6332,-58.5175 160.7817,-58.589 160.9438,-58.6691 161.1194,-58.7579 161.3084,-58.8558 161.5105,-58.9631 161.7256,-59.0799 161.9536,-59.2066 162.1943,-59.3434 162.4474,-59.4905 162.7129,-59.6483 162.9905,-59.817 163.2801,-59.9967 163.5814,-60.1879 163.8943,-60.3906 164.2185,-60.6053 164.5539,-60.832 164.9002,-61.071 165.2573,-61.3226 165.6249,-61.587 166.0029,-61.8644 166.3909,-62.1551 166.7889,-62.4592 167.1964,-62.7771 167.6134,-63.1088 168.0396,-63.4546 168.4748,-63.8147 168.9186,-64.1894 169.3709,-64.5788 169.8315,-64.9831 170.3,-65.4025 170.7763,-65.8372 171.26,-66.2875 171.751,-66.7534 172.2489,-67.2352 172.7535,-67.733 173.2646,-68.2471 173.7818,-68.7775 174.3049,-69.3245 174.8336,-69.8882 175.3676,-70.4688 175.9068,-71.0664 176.0293,-71.51 173.2132,-78.0845 172.8075,-78.3019 172.003,-78.3239 171.2142,-78.3379 170.4414,-78.3441 169.6846,-78.3428 168.9438,-78.3344 168.2191,-78.3191 167.5105,-78.2973 166.8183,-78.2693 166.1423,-78.2354 165.4826,-78.1958 164.8393,-78.151 164.2124,-78.1012 163.602,-78.0468 163.0081,-77.988 162.4306,-77.9252 161.8697,-77.8587 161.3254,-77.7888 160.7976,-77.7158 160.2863,-77.6401 159.7916,-77.5619 159.3135,-77.4815 158.8519,-77.3993 158.4069,-77.3156 157.9784,-77.2307 157.5664,-77.145 157.1709,-77.0586 156.7918,-76.972 156.4292,-76.8854 156.0829,-76.7992 155.753,-76.7136 155.4394,-76.629 155.142,-76.5457 154.8609,-76.464 154.5958,-76.3842 154.3468,-76.3065 154.1138,-76.2314 153.8967,-76.1591 153.6955,-76.0898 153.51,-76.024 153.3402,-75.9619 153.186,-75.9038 153.0472,-75.85 152.9239,-75.8007 152.8158,-75.7564 152.7229,-75.7172 152.6451,-75.6835 152.5822,-75.6555 152.5342,-75.6336 152.5009,-75.618 150.9604,-74.8545 145.9253,-84.25 147.4141,-85.1099 147.4455,-85.129 147.4904,-85.1569 147.5485,-85.1937 147.6196,-85.2399 147.7037,-85.2955 147.8004,-85.3609 147.9097,-85.4364 148.0314,-85.5221 148.1652,-85.6183 148.3109,-85.7253 148.4684,-85.8433 148.6375,-85.9726 148.818,-86.1133 149.0096,-86.2657 149.2121,-86.43 149.4253,-86.6065 149.6491,-86.7954 149.8831,-86.9969 150.1272,-87.2112 150.3812,-87.4385 150.6447,-87.6791 150.9176,-87.9331 151.1996,-88.2008 151.4906,-88.4823 151.7901,-88.7778 152.0981,-89.0876 152.4143,-89.4119 152.7383,-89.7507 153.07,-90.1043 153.409,-90.4729 153.7552,-90.8567 154.1083,-91.2558 154.4679,-91.6703 154.8339,-92.1006 155.206,-92.5466 155.5838,-93.0086 155.9672,-93.4868 156.3558,-93.9812 156.7493,-94.492 157.1475,-95.0194 157.5501,-95.5635 157.9568,-96.1244 158.3673,-96.7023 158.7813,-97.2973 159.1986,-97.9095 159.6187,-98.539 160.0415,-99.1859 160.4666,-99.8504 160.8938,-100.5326 160.9375,-100.9908 157.0225,-106.9764 156.5852,-107.12 155.7891,-107.002 155.0099,-106.8788 154.2477,-106.7507 153.5026,-106.618 152.7745,-106.4811 152.0635,-106.3402 151.3695,-106.1957 150.6926,-106.0479 150.0328,-105.8971 149.39,-105.7436 148.7643,-105.5878 148.1556,-105.4299 147.5639,-105.2703 146.9891,-105.1093 146.4314,-104.9472 145.8905,-104.7843 145.3666,-104.6209 144.8595,-104.4574 144.3691,-104.294 143.8955,-104.131 143.4386,-103.9689 142.9983,-103.8078 142.5746,-103.6481 142.1674,-103.4901 141.7765,-103.3341 141.402,-103.1803 141.0438,-103.0292 140.7017,-102.881 140.3756,-102.7359 140.0656,-102.5944 139.7714,-102.4566 139.4931,-102.3229 139.2303,-102.1936 138.9832,-102.069 138.7514,-101.9493 138.535,-101.8348 138.3338,-101.7259 138.1476,-101.6228 137.9764,-101.5258 137.8199,-101.4351 137.6782,-101.3511 137.5509,-101.274 137.4379,-101.2041 137.3392,-101.1417 137.2546,-101.087 137.1838,-101.0402 137.1267,-101.0018 137.0832,-100.9719 137.0531,-100.9507 135.6686,-99.9313 129.0785,-108.3097 130.3953,-109.4151 130.423,-109.4394 130.4623,-109.4746 130.5131,-109.521 130.5752,-109.5788 130.6483,-109.6482 130.7322,-109.7294 130.8268,-109.8227 130.9317,-109.9282 131.0467,-110.0462 131.1717,-110.1769 131.3063,-110.3205 131.4504,-110.4771 131.6037,-110.647 131.7659,-110.8304 131.9368,-111.0274 132.1162,-111.2382 132.3037,-111.4631 132.4992,-111.7022 132.7024,-111.9556 132.913,-112.2236 133.1308,-112.5062 133.3554,-112.8038 133.5867,-113.1164 133.8243,-113.4441 134.068,-113.7872 134.3175,-114.1458 134.5725,-114.5199 134.8328,-114.9099 135.098,-115.3158 135.3679,-115.7376 135.6422,-116.1757 135.9206,-116.63 136.2028,-117.1007 136.4886,-117.588 136.7775,-118.0918 137.0694,-118.6125 137.3639,-119.1499 137.6607,-119.7043 137.9596,-120.2757 138.2601,-120.8642 138.5621,-121.47 138.8652,-122.093 139.1692,-122.7334 139.4736,-123.3912 139.7782,-124.0666 140.0826,-124.7595 140.3867,-125.47 140.69,-126.1982 140.9922,-126.9442 140.9556,-127.403 136.0607,-132.6178 135.6051,-132.6833 134.8416,-132.4289 134.0956,-132.1723 133.3673,-131.9138 132.6565,-131.6537 131.9633,-131.3924 131.2875,-131.1302 130.6292,-130.8674 129.9882,-130.6043 129.3646,-130.3412 128.7582,-130.0784 128.1691,-129.8163 127.597,-129.5551 127.042,-129.2952 126.504,-129.0368 125.9829,-128.7803 125.4785,-128.526 124.9909,-128.2741 124.5199,-128.025 124.0654,-127.779 123.6273,-127.5363 123.2055,-127.2972 122.7998,-127.0621 122.4103,-126.8313 122.0366,-126.6049 121.6788,-126.3834 121.3367,-126.167 121.0102,-125.956 120.699,-125.7506 120.4031,-125.5511 120.1224,-125.3579 119.8566,-125.1711 119.6057,-124.9911 119.3694,-124.8182 119.1476,-124.6525 118.9402,-124.4944 118.7469,-124.3441 118.5677,-124.2019 118.4022,-124.068 118.2505,-123.9427 118.1121,-123.8263 117.9871,-123.7189 117.8751,-123.6209 117.7761,-123.5324 117.6897,-123.4538 117.6158,-123.3852 117.5542,-123.3269 117.5047,-123.2792 117.467,-123.2421 117.441,-123.2161 116.2546,-121.9718 108.3097,-129.0785 109.4146,-130.3957 109.4376,-130.4244 109.4702,-130.466 109.5122,-130.5205 109.5633,-130.5882 109.6233,-130.6692 109.6918,-130.7638 109.7687,-130.8721 109.8537,-130.9942 109.9465,-131.1304 110.0469,-131.2808 110.1546,-131.4456 110.2692,-131.6248 110.3907,-131.8188 110.5186,-132.0275 110.6527,-132.2512 110.7927,-132.49 110.9384,-132.744 111.0894,-133.0134 111.2455,-133.2983 111.4063,-133.5987 111.5717,-133.9149 111.7413,-134.247 111.9147,-134.5949 112.0918,-134.959 112.2723,-135.3392 112.4557,-135.7356 112.6419,-136.1484 112.8305,-136.5776 113.0212,-137.0234 113.2138,-137.4857 113.4078,-137.9647 113.6031,-138.4605 113.7993,-138.9731 113.9961,-139.5025 114.1931,-140.0489 114.3901,-140.6123 114.5868,-141.1927 114.7829,-141.7902 114.978,-142.4049 115.1718,-143.0366 115.364,-143.6856 115.5543,-144.3518 115.7424,-145.0353 115.928,-145.736 116.1107,-146.4539 116.2902,-147.1892 116.4662,-147.9417 116.6385,-148.7116 116.8066,-149.4987 116.6909,-149.9441 110.9648,-154.2298 110.5048,-154.2152 109.797,-153.832 109.1069,-153.4497 108.4345,-153.0687 107.7797,-152.6892 107.1424,-152.3115 106.5224,-151.9359 105.9197,-151.5627 105.3342,-151.1923 104.7657,-150.8249 104.2142,-150.4609 103.6795,-150.1004 103.1615,-149.7439 102.6601,-149.3915 102.1751,-149.0437 101.7064,-148.7006 101.2539,-148.3625 100.8175,-148.0298 100.3969,-147.7027 99.992,-147.3814 99.6027,-147.0663 99.2288,-146.7577 98.8701,-146.4557 98.5266,-146.1607 98.1979,-145.873 97.884,-145.5927 97.5847,-145.3201 97.2997,-145.0556 97.029,-144.7993 96.7722,-144.5515 96.5293,-144.3124 96.3,-144.0824 96.0841,-143.8615 95.8814,-143.6502 95.6918,-143.4485 95.515,-143.2568 95.3508,-143.0752 95.1989,-142.904 95.0593,-142.7435 94.9315,-142.5937 94.8155,-142.455 94.711,-142.3276 94.6178,-142.2116 94.5356,-142.1073 94.4642,-142.0149 94.4033,-141.9345 94.3528,-141.8664 94.3123,-141.8107 94.2817,-141.7677 94.2606,-141.7376 93.3083,-140.3061 84.25,-145.9253 85.1094,-147.4144 85.127,-147.4466 85.152,-147.4932 85.1838,-147.5542 85.2224,-147.6297 85.2674,-147.7199 85.3185,-147.825 85.3754,-147.945 85.4379,-148.08 85.5056,-148.2302 85.5784,-148.3958 85.6558,-148.5767 85.7376,-148.7732 85.8235,-148.9853 85.9132,-149.2131 86.0064,-149.4567 86.1029,-149.7161 86.2022,-149.9916 86.3041,-150.2831 86.4084,-150.5907 86.5146,-150.9146 86.6226,-151.2547 86.7319,-151.6111 86.8423,-151.9839 86.9535,-152.3732 87.0652,-152.7789 87.177,-153.2012 87.2887,-153.6401 87.3999,-154.0955 87.5103,-154.5676 87.6197,-155.0564 87.7276,-155.5618 87.8338,-156.0839 87.938,-156.6228 88.0398,-157.1784 88.139,-157.7507 88.2352,-158.3397 88.3282,-158.9455 88.4175,-159.568 88.5029,-160.2071 88.584,-160.863 88.6606,-161.5355 88.7324,-162.2246 88.7989,-162.9303 88.86,-163.6526 88.9152,-164.3914 88.9644,-165.1466 89.007,-165.9183 89.043,-166.7063 89.0718,-167.5107 88.8806,-167.9293 82.4973,-171.1555 82.0468,-171.0612 81.4163,-170.561 80.8031,-170.0647 80.2071,-169.5727 79.6281,-169.0852 79.066,-168.6026 78.5207,-168.1251 77.992,-167.6529 77.4797,-167.1865 76.9836,-166.726 76.5037,-166.2717 76.0397,-165.8238 75.5915,-165.3828 75.1589,-164.9487 74.7417,-164.5219 74.3397,-164.1026 73.9528,-163.6911 73.5807,-163.2876 73.2233,-162.8925 72.8804,-162.5058 72.5517,-162.1279 72.2371,-161.759 71.9363,-161.3994 71.6492,-161.0492 71.3755,-160.7087 71.115,-160.3782 70.8676,-160.0578 70.6329,-159.7478 70.4107,-159.4484 70.2009,-159.1597 70.0032,-158.8821 69.8173,-158.6158 69.6431,-158.3608 69.4802,-158.1174 69.3285,-157.8859 69.1876,-157.6664 69.0574,-157.4591 68.9376,-157.2641 68.828,-157.0817 68.7282,-156.9121 68.638,-156.7554 68.5572,-156.6117 68.4856,-156.4813 68.4227,-156.3643 68.3684,-156.2609 68.3225,-156.1711 68.2845,-156.0953 68.2543,-156.0335 68.2316,-155.9858 68.2161,-155.9524 67.5268,-154.3774 57.6304,-158.3382 58.2181,-159.9539 58.2299,-159.9887 58.2464,-160.0389 58.2672,-160.1045 58.2921,-160.1856 58.3207,-160.2822 58.3527,-160.3946 58.388,-160.5226 58.4261,-160.6665 58.4667,-160.8262 58.5096,-161.0019 58.5544,-161.1935 58.6008,-161.4012 58.6486,-161.6249 58.6974,-161.8649 58.7469,-162.1209 58.7968,-162.3932 58.8468,-162.6817 58.8966,-162.9865 58.9458,-163.3076 58.9942,-163.645 59.0415,-163.9986 59.0873,-164.3686 59.1313,-164.755 59.1732,-165.1576 59.2127,-165.5766 59.2495,-166.0119 59.2833,-166.4634 59.3137,-166.9313 59.3405,-167.4154 59.3633,-167.9157 59.3818,-168.4322 59.3957,-168.9649 59.4048,-169.5136 59.4086,-170.0785 59.4069,-170.6593 59.3993,-171.2561 59.3857,-171.8688 59.3655,-172.4973 59.3386,-173.1416 59.3047,-173.8016 59.2633,-174.4771 59.2143,-175.1683 59.1573,-175.8748 59.092,-176.5967 59.0182,-177.3339 58.9354,-178.0862 58.8434,-178.8536 58.742,-179.6359 58.6307,-180.433 58.3696,-180.812 51.5231,-182.8808 51.0958,-182.7097 50.5618,-182.1076 50.0441,-181.5123 49.5426,-180.9243 49.057,-180.3437 48.5873,-179.7708 48.1332,-179.2058 47.6945,-178.6491 47.271,-178.1007 46.8624,-177.5611 46.4687,-177.0303 46.0895,-176.5088 45.7247,-175.9965 45.374,-175.4939 45.0373,-175.0012 44.7142,-174.5185 44.4046,-174.046 44.1083,-173.5841 43.8249,-173.1329 43.5543,-172.6925 43.2962,-172.2633 43.0505,-171.8454 42.8167,-171.439 42.5948,-171.0442 42.3844,-170.6614 42.1853,-170.2907 41.9972,-169.9322 41.8199,-169.5861 41.6531,-169.2527 41.4966,-168.932 41.3501,-168.6243 41.2133,-168.3297 41.086,-168.0483 40.9678,-167.7804 40.8586,-167.526 40.758,-167.2854 40.6658,-167.0586 40.5817,-166.8458 40.5053,-166.6472 40.4365,-166.4628 40.375,-166.2928 40.3204,-166.1373 40.2724,-165.9964 40.2308,-165.8702 40.1953,-165.759 40.1657,-165.6626 40.1415,-165.5813 40.1225,-165.5152 40.1084,-165.4643 40.0989,-165.4288 39.6936,-163.758 29.2597,-165.9401 29.558,-167.6333 29.5635,-167.6697 29.571,-167.722 29.5801,-167.7902 29.5905,-167.8743 29.6019,-167.9745 29.614,-168.0907 29.6265,-168.2229 29.639,-168.3712 29.6513,-168.5355 29.663,-168.716 29.6739,-168.9125 29.6835,-169.1251 29.6917,-169.3537 29.6981,-169.5985 29.7024,-169.8592 29.7043,-170.1361 29.7034,-170.4289 29.6995,-170.7377 29.6923,-171.0624 29.6813,-171.4031 29.6665,-171.7596 29.6473,-172.1319 29.6235,-172.52 29.5949,-172.9238 29.5611,-173.3433 29.5217,-173.7784 29.4765,-174.2289 29.4253,-174.6949 29.3676,-175.1763 29.3031,-175.673 29.2317,-176.1849 29.1529,-176.7119 29.0665,-177.2539 28.9722,-177.8108 28.8697,-178.3825 28.7586,-178.9689 28.6388,-179.5699 28.5098,-180.1854 28.3714,-180.8152 28.2234,-181.4593 28.0654,-182.1174 27.8971,-182.7895 27.7183,-183.4754 27.5286,-184.175 27.3278,-184.8882 27.1157,-185.6147 26.8919,-186.3544 26.6561,-187.1072 26.4081,-187.8729 26.0852,-188.2009 18.9834,-189.0493 18.5924,-188.8066 18.171,-188.1209 17.7645,-187.4448 17.3727,-186.7786 16.9954,-186.1225 16.6323,-185.4768 16.2832,-184.8415 15.9478,-184.2171 15.6259,-183.6035 15.3173,-183.0011 15.0217,-182.4101 14.7389,-181.8306 14.4686,-181.2628 14.2105,-180.7069 13.9644,-180.1632 13.7301,-179.6317 13.5072,-179.1127 13.2956,-178.6063 13.0949,-178.1127 12.9049,-177.632 12.7253,-177.1645 12.5558,-176.7103 12.3962,-176.2695 12.2461,-175.8422 12.1054,-175.4287 11.9737,-175.029 11.8507,-174.6433 11.7362,-174.2717 11.6299,-173.9143 11.5314,-173.5714 11.4406,-173.2429 11.357,-172.929 11.2805,-172.6298 11.2107,-172.3454 11.1473,-172.076 11.09,-171.8215 11.0386,-171.5822 10.9927,-171.358 10.952,-171.1491 10.9163,-170.9556 10.8852,-170.7774 10.8584,-170.6148 10.8356,-170.4678 10.8166,-170.3363 10.8009,-170.2206 10.7884,-170.1205 10.7787,-170.0363 10.7715,-169.9679 10.7665,-169.9153 10.7633,-169.8786 10.6543,-168.1628 0,-168.5 -0.0003,-170.2193 -0.0011,-170.2561 -0.0028,-170.3088 -0.0057,-170.3776 -0.0101,-170.4623 -0.0163,-170.5629 -0.0245,-170.6794 -0.0352,-170.8118 -0.0486,-170.96 -0.0651,-171.124 -0.0849,-171.3037 -0.1083,-171.4991 -0.1357,-171.7102 -0.1673,-171.9368 -0.2035,-172.1789 -0.2446,-172.4365 -0.2908,-172.7094 -0.3425,-172.9976 -0.4,-173.3011 -0.4635,-173.6196 -0.5334,-173.9532 -0.61,-174.3017 -0.6935,-174.665 -0.7843,-175.0431 -0.8826,-175.4358 -0.9888,-175.843 -1.1031,-176.2647 -1.2258,-176.7005 -1.3572,-177.1506 -1.4976,-177.6146 -1.6473,-178.0926 -1.8066,-178.5843 -1.9757,-179.0896 -2.1549,-179.6083 -2.3445,-180.1404 -2.5447,-180.6856 -2.7559,-181.2439 -2.9783,-181.8149 -3.2122,-182.3986 -3.4578,-182.9949 -3.7155,-183.6034 -3.9854,-184.2241 -4.2678,-184.8568 -4.563,-185.5013 -4.8713,-186.1573 -5.1928,-186.8247 -5.5279,-187.5034 -5.8768,-188.193 -6.2397,-188.8934 -6.6169,-189.6044 -6.9918,-189.8713 -14.133,-189.4736 -14.476,-189.1668 -14.7719,-188.4183 -15.0548,-187.6819 -15.325,-186.9578 -15.5826,-186.2461 -15.8281,-185.5471 -16.0616,-184.8609 -16.2834,-184.1877 -16.4939,-183.5276 -16.6932,-182.8807 -16.8817,-182.2473 -17.0596,-181.6275 -17.2272,-181.0214 -17.3848,-180.4292 -17.5327,-179.851 -17.6712,-179.2869 -17.8006,-178.7371 -17.9211,-178.2016 -18.033,-177.6807 -18.1367,-177.1743 -18.2324,-176.6827 -18.3204,-176.2059 -18.401,-175.7441 -18.4746,-175.2973 -18.5414,-174.8656 -18.6017,-174.4491 -18.6558,-174.0479 -18.704,-173.6621 -18.7467,-173.2917 -18.7841,-172.9368 -18.8165,-172.5976 -18.8443,-172.2739 -18.8677,-171.966 -18.8871,-171.6738 -18.9027,-171.3974 -18.915,-171.1369 -18.9241,-170.8923 -18.9303,-170.6635 -18.9341,-170.4508 -18.9357,-170.2539 -18.9354,-170.0731 -18.9335,-169.9083 -18.9304,-169.7596 -18.9263,-169.6268 -18.9216,-169.5101 -18.9166,-169.4094 -18.9115,-169.3248 -18.9068,-169.2561 -18.9026,-169.2035 -18.8993,-169.1668 -18.7087,-167.4582 -29.2597,-165.9401 -29.5586,-167.6332 -29.5658,-167.6693 -29.5766,-167.721 -29.5914,-167.7882 -29.6104,-167.8708 -29.6339,-167.9688 -29.6623,-168.0821 -29.6958,-168.2107 -29.7348,-168.3543 -29.7795,-168.5129 -29.8301,-168.6865 -29.8872,-168.8749 -29.9508,-169.0779 -30.0213,-169.2956 -30.099,-169.5278 -30.1841,-169.7743 -30.2771,-170.0351 -30.378,-170.3099 -30.4873,-170.5988 -30.6052,-170.9014 -30.732,-171.2178 -30.8679,-171.5477 -31.0132,-171.8911 -31.1683,-172.2476 -31.3333,-172.6173 -31.5086,-172.9999 -31.6944,-173.3953 -31.8909,-173.8032 -32.0985,-174.2236 -32.3174,-174.6562 -32.5478,-175.1009 -32.79,-175.5575 -33.0442,-176.0257 -33.3108,-176.5055 -33.5899,-176.9965 -33.8818,-177.4987 -34.1867,-178.0118 -34.5049,-178.5356 -34.8366,-179.0698 -35.182,-179.6143 -35.5414,-180.1689 -35.915,-180.7333 -36.303,-181.3073 -36.7057,-181.8907 -37.1232,-182.4833 -37.5557,-183.0847 -38.0036,-183.6949 -38.4669,-184.3134 -38.9459,-184.9402 -39.4408,-185.5749 -39.8564,-185.7726 -46.8201,-184.1409 -47.1046,-183.7792 -47.266,-182.9907 -47.4167,-182.2163 -47.557,-181.4563 -47.6872,-180.7108 -47.8075,-179.9797 -47.9184,-179.2634 -48.0199,-178.5619 -48.1125,-177.8752 -48.1965,-177.2036 -48.2721,-176.5471 -48.3397,-175.9058 -48.3995,-175.2798 -48.4519,-174.6692 -48.4972,-174.0741 -48.5356,-173.4945 -48.5675,-172.9306 -48.5932,-172.3824 -48.613,-171.8499 -48.6271,-171.3333 -48.636,-170.8325 -48.6399,-170.3477 -48.6391,-169.8788 -48.634,-169.426 -48.6248,-168.9893 -48.6118,-168.5687 -48.5955,-168.1642 -48.576,-167.7758 -48.5537,-167.4037 -48.5289,-167.0477 -48.5019,-166.708 -48.4731,-166.3844 -48.4427,-166.0771 -48.411,-165.786 -48.3784,-165.5111 -48.3452,-165.2524 -48.3117,-165.0099 -48.2782,-164.7836 -48.2449,-164.5733 -48.2123,-164.3793 -48.1806,-164.2012 -48.1502,-164.0393 -48.1213,-163.8933 -48.0942,-163.7633 -48.0693,-163.6491 -48.0468,-163.5509 -48.0272,-163.4684 -48.0105,-163.4016 -47.9973,-163.3505 -47.9877,-163.315 -47.5033,-161.6653 -57.6304,-158.3382 -58.2187,-159.9537 -58.2321,-159.988 -58.2517,-160.037 -58.2779,-160.1006 -58.311,-160.1787 -58.3512,-160.2711 -58.3988,-160.3778 -58.4542,-160.4985 -58.5175,-160.6332 -58.589,-160.7817 -58.6691,-160.9438 -58.7579,-161.1194 -58.8558,-161.3084 -58.9631,-161.5105 -59.0799,-161.7256 -59.2066,-161.9536 -59.3434,-162.1943 -59.4905,-162.4474 -59.6483,-162.7129 -59.817,-162.9905 -59.9967,-163.2801 -60.1879,-163.5814 -60.3906,-163.8943 -60.6053,-164.2185 -60.832,-164.5539 -61.071,-164.9002 -61.3226,-165.2573 -61.587,-165.6249 -61.8644,-166.0029 -62.1551,-166.3909 -62.4592,-166.7889 -62.7771,-167.1964 -63.1088,-167.6134 -63.4546,-168.0396 -63.8147,-168.4748 -64.1894,-168.9186 -64.5788,-169.3709 -64.9831,-169.8315 -65.4025,-170.3 -65.8372,-170.7763 -66.2875,-171.26 -66.7534,-171.751 -67.2352,-172.2489 -67.733,-172.7535 -68.2471,-173.2646 -68.7775,-173.7818 -69.3245,-174.3049 -69.8882,-174.8336 -70.4688,-175.3676 -71.0664,-175.9068 -71.51,-176.0293 -78.0845,-173.2132 -78.3019,-172.8075 -78.3239,-172.003 -78.3379,-171.2142 -78.3441,-170.4414 -78.3428,-169.6846 -78.3344,-168.9438 -78.3191,-168.2191 -78.2973,-167.5105 -78.2693,-166.8183 -78.2354,-166.1423 -78.1958,-165.4826 -78.151,-164.8393 -78.1012,-164.2124 -78.0468,-163.602 -77.988,-163.0081 -77.9252,-162.4306 -77.8587,-161.8697 -77.7888,-161.3254 -77.7158,-160.7976 -77.6401,-160.2863 -77.5619,-159.7916 -77.4815,-159.3135 -77.3993,-158.8519 -77.3156,-158.4069 -77.2307,-157.9784 -77.145,-157.5664 -77.0586,-157.1709 -76.972,-156.7918 -76.8854,-156.4292 -76.7992,-156.0829 -76.7136,-155.753 -76.629,-155.4394 -76.5457,-155.142 -76.464,-154.8609 -76.3842,-154.5958 -76.3065,-154.3468 -76.2314,-154.1138 -76.1591,-153.8967 -76.0898,-153.6955 -76.024,-153.51 -75.9619,-153.3402 -75.9038,-153.186 -75.85,-153.0472 -75.8007,-152.9239 -75.7564,-152.8158 -75.7172,-152.7229 -75.6835,-152.6451 -75.6555,-152.5822 -75.6336,-152.5342 -75.618,-152.5009 -74.8545,-150.9604 -84.25,-145.9253 -85.1099,-147.4141 -85.129,-147.4455 -85.1569,-147.4904 -85.1937,-147.5485 -85.2399,-147.6196 -85.2955,-147.7037 -85.3609,-147.8004 -85.4364,-147.9097 -85.5221,-148.0314 -85.6183,-148.1652 -85.7253,-148.3109 -85.8433,-148.4684 -85.9726,-148.6375 -86.1133,-148.818 -86.2657,-149.0096 -86.43,-149.2121 -86.6065,-149.4253 -86.7954,-149.6491 -86.9969,-149.8831 -87.2112,-150.1272 -87.4385,-150.3812 -87.6791,-150.6447 -87.9331,-150.9176 -88.2008,-151.1996 -88.4823,-151.4906 -88.7778,-151.7901 -89.0876,-152.0981 -89.4119,-152.4143 -89.7507,-152.7383 -90.1043,-153.07 -90.4729,-153.409 -90.8567,-153.7552 -91.2558,-154.1083 -91.6703,-154.4679 -92.1006,-154.8339 -92.5466,-155.206 -93.0086,-155.5838 -93.4868,-155.9672 -93.9812,-156.3558 -94.492,-156.7493 -95.0194,-157.1475 -95.5635,-157.5501 -96.1244,-157.9568 -96.7023,-158.3673 -97.2973,-158.7813 -97.9095,-159.1986 -98.539,-159.6187 -99.1859,-160.0415 -99.8504,-160.4666 -100.5326,-160.8938 -100.9908,-160.9375 -106.9764,-157.0225 -107.12,-156.5852 -107.002,-155.7891 -106.8788,-155.0099 -106.7507,-154.2477 -106.618,-153.5026 -106.4811,-152.7745 -106.3402,-152.0635 -106.1957,-151.3695 -106.0479,-150.6926 -105.8971,-150.0328 -105.7436,-149.39 -105.5878,-148.7643 -105.4299,-148.1556 -105.2703,-147.5639 -105.1093,-146.9891 -104.9472,-146.4314 -104.7843,-145.8905 -104.6209,-145.3666 -104.4574,-144.8595 -104.294,-144.3691 -104.131,-143.8955 -103.9689,-143.4386 -103.8078,-142.9983 -103.6481,-142.5746 -103.4901,-142.1674 -103.3341,-141.7765 -103.1803,-141.402 -103.0292,-141.0438 -102.881,-140.7017 -102.7359,-140.3756 -102.5944,-140.0656 -102.4566,-139.7714 -102.3229,-139.4931 -102.1936,-139.2303 -102.069,-138.9832 -101.9493,-138.7514 -101.8348,-138.535 -101.7259,-138.3338 -101.6228,-138.1476 -101.5258,-137.9764 -101.4351,-137.8199 -101.3511,-137.6782 -101.274,-137.5509 -101.2041,-137.4379 -101.1417,-137.3392 -101.087,-137.2546 -101.0402,-137.1838 -101.0018,-137.1267 -100.9719,-137.0832 -100.9507,-137.0531 -99.9313,-135.6686 -108.3097,-129.0785 -109.4151,-130.3953 -109.4394,-130.423 -109.4746,-130.4623 -109.521,-130.5131 -109.5788,-130.5752 -109.6482,-130.6483 -109.7294,-130.7322 -109.8227,-130.8268 -109.9282,-130.9317 -110.0462,-131.0467 -110.1769,-131.1717 -110.3205,-131.3063 -110.4771,-131.4504 -110.647,-131.6037 -110.8304,-131.7659 -111.0274,-131.9368 -111.2382,-132.1162 -111.4631,-132.3037 -111.7022,-132.4992 -111.9556,-132.7024 -112.2236,-132.913 -112.5062,-133.1308 -112.8038,-133.3554 -113.1164,-133.5867 -113.4441,-133.8243 -113.7872,-134.068 -114.1458,-134.3175 -114.5199,-134.5725 -114.9099,-134.8328 -115.3158,-135.098 -115.7376,-135.3679 -116.1757,-135.6422 -116.63,-135.9206 -117.1007,-136.2028 -117.588,-136.4886 -118.0918,-136.7775 -118.6125,-137.0694 -119.1499,-137.3639 -119.7043,-137.6607 -120.2757,-137.9596 -120.8642,-138.2601 -121.47,-138.5621 -122.093,-138.8652 -122.7334,-139.1692 -123.3912,-139.4736 -124.0666,-139.7782 -124.7595,-140.0826 -125.47,-140.3867 -126.1982,-140.69 -126.9442,-140.9922 -127.403,-140.9556 -132.6178,-136.0607 -132.6833,-135.6051 -132.4289,-134.8416 -132.1723,-134.0956 -131.9138,-133.3673 -131.6537,-132.6565 -131.3924,-131.9633 -131.1302,-131.2875 -130.8674,-130.6292 -130.6043,-129.9882 -130.3412,-129.3646 -130.0784,-128.7582 -129.8163,-128.1691 -129.5551,-127.597 -129.2952,-127.042 -129.0368,-126.504 -128.7803,-125.9829 -128.526,-125.4785 -128.2741,-124.9909 -128.025,-124.5199 -127.779,-124.0654 -127.5363,-123.6273 -127.2972,-123.2055 -127.0621,-122.7998 -126.8313,-122.4103 -126.6049,-122.0366 -126.3834,-121.6788 -126.167,-121.3367 -125.956,-121.0102 -125.7506,-120.699 -125.5511,-120.4031 -125.3579,-120.1224 -125.1711,-119.8566 -124.9911,-119.6057 -124.8182,-119.3694 -124.6525,-119.1476 -124.4944,-118.9402 -124.3441,-118.7469 -124.2019,-118.5677 -124.068,-118.4022 -123.9427,-118.2505 -123.8263,-118.1121 -123.7189,-117.9871 -123.6209,-117.8751 -123.5324,-117.7761 -123.4538,-117.6897 -123.3852,-117.6158 -123.3269,-117.5542 -123.2792,-117.5047 -123.2421,-117.467 -123.2161,-117.441 -121.9718,-116.2546 -129.0785,-108.3097 -130.3957,-109.4146 -130.4244,-109.4376 -130.466,-109.4702 -130.5205,-109.5122 -130.5882,-109.5633 -130.6692,-109.6233 -130.7638,-109.6918 -130.8721,-109.7687 -130.9942,-109.8537 -131.1304,-109.9465 -131.2808,-110.0469 -131.4456,-110.1546 -131.6248,-110.2692 -131.8188,-110.3907 -132.0275,-110.5186 -132.2512,-110.6527 -132.49,-110.7927 -132.744,-110.9384 -133.0134,-111.0894 -133.2983,-111.2455 -133.5987,-111.4063 -133.9149,-111.5717 -134.247,-111.7413 -134.5949,-111.9147 -134.959,-112.0918 -135.3392,-112.2723 -135.7356,-112.4557 -136.1484,-112.6419 -136.5776,-112.8305 -137.0234,-113.0212 -137.4857,-113.2138 -137.9647,-113.4078 -138.4605,-113.6031 -138.9731,-113.7993 -139.5025,-113.9961 -140.0489,-114.1931 -140.6123,-114.3901 -141.1927,-114.5868 -141.7902,-114.7829 -142.4049,-114.978 -143.0366,-115.1718 -143.6856,-115.364 -144.3518,-115.5543 -145.0353,-115.7424 -145.736,-115.928 -146.4539,-116.1107 -147.1892,-116.2902 -147.9417,-116.4662 -148.7116,-116.6385 -149.4987,-116.8066 -149.9441,-116.6909 -154.2298,-110.9648 -154.2152,-110.5048 -153.832,-109.797 -153.4497,-109.1069 -153.0687,-108.4345 -152.6892,-107.7797 -152.3115,-107.1424 -151.9359,-106.5224 -151.5627,-105.9197 -151.1923,-105.3342 -150.8249,-104.7657 -150.4609,-104.2142 -150.1004,-103.6795 -149.7439,-103.1615 -149.3915,-102.6601 -149.0437,-102.1751 -148.7006,-101.7064 -148.3625,-101.2539 -148.0298,-100.8175 -147.7027,-100.3969 -147.3814,-99.992 -147.0663,-99.6027 -146.7577,-99.2288 -146.4557,-98.8701 -146.1607,-98.5266 -145.873,-98.1979 -145.5927,-97.884 -145.3201,-97.5847 -145.0556,-97.2997 -144.7993,-97.029 -144.5515,-96.7722 -144.3124,-96.5293 -144.0824,-96.3 -143.8615,-96.0841 -143.6502,-95.8814 -143.4485,-95.6918 -143.2568,-95.515 -143.0752,-95.3508 -142.904,-95.1989 -142.7435,-95.0593 -142.5937,-94.9315 -142.455,-94.8155 -142.3276,-94.711 -142.2116,-94.6178 -142.1073,-94.5356 -142.0149,-94.4642 -141.9345,-94.4033 -141.8664,-94.3528 -141.8107,-94.3123 -141.7677,-94.2817 -141.7376,-94.2606 -140.3061,-93.3083 -145.9253,-84.25 -147.4144,-85.1094 -147.4466,-85.127 -147.4932,-85.152 -147.5542,-85.1838 -147.6297,-85.2224 -147.7199,-85.2674 -147.825,-85.3185 -147.945,-85.3754 -148.08,-85.4379 -148.2302,-85.5056 -148.3958,-85.5784 -148.5767,-85.6558 -148.7732,-85.7376 -148.9853,-85.8235 -149.2131,-85.9132 -149.4567,-86.0064 -149.7161,-86.1029 -149.9916,-86.2022 -150.2831,-86.3041 -150.5907,-86.4084 -150.9146,-86.5146 -151.2547,-86.6226 -151.6111,-86.7319 -151.9839,-86.8423 -152.3732,-86.9535 -152.7789,-87.0652 -153.2012,-87.177 -153.6401,-87.2887 -154.0955,-87.3999 -154.5676,-87.5103 -155.0564,-87.6197 -155.5618,-87.7276 -156.0839,-87.8338 -156.6228,-87.938 -157.1784,-88.0398 -157.7507,-88.139 -158.3397,-88.2352 -158.9455,-88.3282 -159.568,-88.4175 -160.2071,-88.5029 -160.863,-88.584 -161.5355,-88.6606 -162.2246,-88.7324 -162.9303,-88.7989 -163.6526,-88.86 -164.3914,-88.9152 -165.1466,-88.9644 -165.9183,-89.007 -166.7063,-89.043 -167.5107,-89.0718 -167.9293,-88.8806 -171.1555,-82.4973 -171.0612,-82.0468 -170.561,-81.4163 -170.0647,-80.8031 -169.5727,-80.2071 -169.0852,-79.6281 -168.6026,-79.066 -168.1251,-78.5207 -167.6529,-77.992 -167.1865,-77.4797 -166.726,-76.9836 -166.2717,-76.5037 -165.8238,-76.0397 -165.3828,-75.5915 -164.9487,-75.1589 -164.5219,-74.7417 -164.1026,-74.3397 -163.6911,-73.9528 -163.2876,-73.5807 -162.8925,-73.2233 -162.5058,-72.8804 -162.1279,-72.5517 -161.759,-72.2371 -161.3994,-71.9363 -161.0492,-71.6492 -160.7087,-71.3755 -160.3782,-71.115 -160.0578,-70.8676 -159.7478,-70.6329 -159.4484,-70.4107 -159.1597,-70.2009 -158.8821,-70.0032 -158.6158,-69.8173 -158.3608,-69.6431 -158.1174,-69.4802 -157.8859,-69.3285 -157.6664,-69.1876 -157.4591,-69.0574 -157.2641,-68.9376 -157.0817,-68.828 -156.9121,-68.7282 -156.7554,-68.638 -156.6117,-68.5572 -156.4813,-68.4856 -156.3643,-68.4227 -156.2609,-68.3684 -156.1711,-68.3225 -156.0953,-68.2845 -156.0335,-68.2543 -155.9858,-68.2316 -155.9524,-68.2161 -154.3774,-67.5268 -158.3382,-57.6304 -159.9539,-58.2181 -159.9887,-58.2299 -160.0389,-58.2464 -160.1045,-58.2672 -160.1856,-58.2921 -160.2822,-58.3207 -160.3946,-58.3527 -160.5226,-58.388 -160.6665,-58.4261 -160.8262,-58.4667 -161.0019,-58.5096 -161.1935,-58.5544 -161.4012,-58.6008 -161.6249,-58.6486 -161.8649,-58.6974 -162.1209,-58.7469 -162.3932,-58.7968 -162.6817,-58.8468 -162.9865,-58.8966 -163.3076,-58.9458 -163.645,-58.9942 -163.9986,-59.0415 -164.3686,-59.0873 -164.755,-59.1313 -165.1576,-59.1732 -165.5766,-59.2127 -166.0119,-59.2495 -166.4634,-59.2833 -166.9313,-59.3137 -167.4154,-59.3405 -167.9157,-59.3633 -168.4322,-59.3818 -168.9649,-59.3957 -169.5136,-59.4048 -170.0785,-59.4086 -170.6593,-59.4069 -171.2561,-59.3993 -171.8688,-59.3857 -172.4973,-59.3655 -173.1416,-59.3386 -173.8016,-59.3047 -174.4771,-59.2633 -175.1683,-59.2143 -175.8748,-59.1573 -176.5967,-59.092 -177.3339,-59.0182 -178.0862,-58.9354 -178.8536,-58.8434 -179.6359,-58.742 -180.433,-58.6307 -180.812,-58.3696 -182.8808,-51.5231 -182.7097,-51.0958 -182.1076,-50.5618 -181.5123,-50.0441 -180.9243,-49.5426 -180.3437,-49.057 -179.7708,-48.5873 -179.2058,-48.1332 -178.6491,-47.6945 -178.1007,-47.271 -177.5611,-46.8624 -177.0303,-46.4687 -176.5088,-46.0895 -175.9965,-45.7247 -175.4939,-45.374 -175.0012,-45.0373 -174.5185,-44.7142 -174.046,-44.4046 -173.5841,-44.1083 -173.1329,-43.8249 -172.6925,-43.5543 -172.2633,-43.2962 -171.8454,-43.0505 -171.439,-42.8167 -171.0442,-42.5948 -170.6614,-42.3844 -170.2907,-42.1853 -169.9322,-41.9972 -169.5861,-41.8199 -169.2527,-41.6531 -168.932,-41.4966 -168.6243,-41.3501 -168.3297,-41.2133 -168.0483,-41.086 -167.7804,-40.9678 -167.526,-40.8586 -167.2854,-40.758 -167.0586,-40.6658 -166.8458,-40.5817 -166.6472,-40.5053 -166.4628,-40.4365 -166.2928,-40.375 -166.1373,-40.3204 -165.9964,-40.2724 -165.8702,-40.2308 -165.759,-40.1953 -165.6626,-40.1657 -165.5813,-40.1415 -165.5152,-40.1225 -165.4643,-40.1084 -165.4288,-40.0989 -163.758,-39.6936 -165.9401,-29.2597 -167.6333,-29.558 -167.6697,-29.5635 -167.722,-29.571 -167.7902,-29.5801 -167.8743,-29.5905 -167.9745,-29.6019 -168.0907,-29.614 -168.2229,-29.6265 -168.3712,-29.639 -168.5355,-29.6513 -168.716,-29.663 -168.9125,-29.6739 -169.1251,-29.6835 -169.3537,-29.6917 -169.5985,-29.6981 -169.8592,-29.7024 -170.1361,-29.7043 -170.4289,-29.7034 -170.7377,-29.6995 -171.0624,-29.6923 -171.4031,-29.6813 -171.7596,-29.6665 -172.1319,-29.6473 -172.52,-29.6235 -172.9238,-29.5949 -173.3433,-29.5611 -173.7784,-29.5217 -174.2289,-29.4765 -174.6949,-29.4253 -175.1763,-29.3676 -175.673,-29.3031 -176.1849,-29.2317 -176.7119,-29.1529 -177.2539,-29.0665 -177.8108,-28.9722 -178.3825,-28.8697 -178.9689,-28.7586 -179.5699,-28.6388 -180.1854,-28.5098 -180.8152,-28.3714 -181.4593,-28.2234 -182.1174,-28.0654 -182.7895,-27.8971 -183.4754,-27.7183 -184.175,-27.5286 -184.8882,-27.3278 -185.6147,-27.1157 -186.3544,-26.8919 -187.1072,-26.6561 -187.8729,-26.4081 -188.2009,-26.0852 -189.0493,-18.9834 -188.8066,-18.5924 -188.1209,-18.171 -187.4448,-17.7645 -186.7786,-17.3727 -186.1225,-16.9954 -185.4768,-16.6323 -184.8415,-16.2832 -184.2171,-15.9478 -183.6035,-15.6259 -183.0011,-15.3173 -182.4101,-15.0217 -181.8306,-14.7389 -181.2628,-14.4686 -180.7069,-14.2105 -180.1632,-13.9644 -179.6317,-13.7301 -179.1127,-13.5072 -178.6063,-13.2956 -178.1127,-13.0949 -177.632,-12.9049 -177.1645,-12.7253 -176.7103,-12.5558 -176.2695,-12.3962 -175.8422,-12.2461 -175.4287,-12.1054 -175.029,-11.9737 -174.6433,-11.8507 -174.2717,-11.7362 -173.9143,-11.6299 -173.5714,-11.5314 -173.2429,-11.4406 -172.929,-11.357 -172.6298,-11.2805 -172.3454,-11.2107 -172.076,-11.1473 -171.8215,-11.09 -171.5822,-11.0386 -171.358,-10.9927 -171.1491,-10.952 -170.9556,-10.9163 -170.7774,-10.8852 -170.6148,-10.8584 -170.4678,-10.8356 -170.3363,-10.8166 -170.2206,-10.8009 -170.1205,-10.7884 -170.0363,-10.7787 -169.9679,-10.7715 -169.9153,-10.7665 -169.8786,-10.7633 -168.1628,-10.6543 -168.5,0 -170.2193,0.0003 -170.2561,0.0011 -170.3088,0.0028 -170.3776,0.0057 -170.4623,0.0101 -170.5629,0.0163 -170.6794,0.0245 -170.8118,0.0352 -170.96,0.0486 -171.124,0.0651 -171.3037,0.0849 -171.4991,0.1083 -171.7102,0.1357 -171.9368,0.1673 -172.1789,0.2035 -172.4365,0.2446 -172.7094,0.2908 -172.9976,0.3425 -173.3011,0.4 -173.6196,0.4635 -173.9532,0.5334 -174.3017,0.61 -174.665,0.6935 -175.0431,0.7843 -175.4358,0.8826 -175.843,0.9888 -176.2647,1.1031 -176.7005,1.2258 -177.1506,1.3572 -177.6146,1.4976 -178.0926,1.6473 -178.5843,1.8066 -179.0896,1.9757 -179.6083,2.1549 -180.1404,2.3445 -180.6856,2.5447 -181.2439,2.7559 -181.8149,2.9783 -182.3986,3.2122 -182.9949,3.4578 -183.6034,3.7155 -184.2241,3.9854 -184.8568,4.2678 -185.5013,4.563 -186.1573,4.8713 -186.8247,5.1928 -187.5034,5.5279 -188.193,5.8768 -188.8934,6.2397 -189.6044,6.6169 -189.8713,6.9918 -189.4736,14.133 -189.1668,14.476 -188.4183,14.7719 -187.6819,15.0548 -186.9578,15.325 -186.2461,15.5826 -185.5471,15.8281 -184.8609,16.0616 -184.1877,16.2834 -183.5276,16.4939 -182.8807,16.6932 -182.2473,16.8817 -181.6275,17.0596 -181.0214,17.2272 -180.4292,17.3848 -179.851,17.5327 -179.2869,17.6712 -178.7371,17.8006 -178.2016,17.9211 -177.6807,18.033 -177.1743,18.1367 -176.6827,18.2324 -176.2059,18.3204 -175.7441,18.401 -175.2973,18.4746 -174.8656,18.5414 -174.4491,18.6017 -174.0479,18.6558 -173.6621,18.704 -173.2917,18.7467 -172.9368,18.7841 -172.5976,18.8165 -172.2739,18.8443 -171.966,18.8677 -171.6738,18.8871 -171.3974,18.9027 -171.1369,18.915 -170.8923,18.9241 -170.6635,18.9303 -170.4508,18.9341 -170.2539,18.9357 -170.0731,18.9354 -169.9083,18.9335 -169.7596,18.9304 -169.6268,18.9263 -169.5101,18.9216 -169.4094,18.9166 -169.3248,18.9115 -169.2561,18.9068 -169.2035,18.9026 -169.1668,18.8993 -167.4582,18.7087 -165.9401,29.2597 -167.6332,29.5586 -167.6693,29.5658 -167.721,29.5766 -167.7882,29.5914 -167.8708,29.6104 -167.9688,29.6339 -168.0821,29.6623 -168.2107,29.6958 -168.3543,29.7348 -168.5129,29.7795 -168.6865,29.8301 -168.8749,29.8872 -169.0779,29.9508 -169.2956,30.0213 -169.5278,30.099 -169.7743,30.1841 -170.0351,30.2771 -170.3099,30.378 -170.5988,30.4873 -170.9014,30.6052 -171.2178,30.732 -171.5477,30.8679 -171.8911,31.0132 -172.2476,31.1683 -172.6173,31.3333 -172.9999,31.5086 -173.3953,31.6944 -173.8032,31.8909 -174.2236,32.0985 -174.6562,32.3174 -175.1009,32.5478 -175.5575,32.79 -176.0257,33.0442 -176.5055,33.3108 -176.9965,33.5899 -177.4987,33.8818 -178.0118,34.1867 -178.5356,34.5049 -179.0698,34.8366 -179.6143,35.182 -180.1689,35.5414 -180.7333,35.915 -181.3073,36.303 -181.8907,36.7057 -182.4833,37.1232 -183.0847,37.5557 -183.6949,38.0036 -184.3134,38.4669 -184.9402,38.9459 -185.5749,39.4408 -185.7726,39.8564 -184.1409,46.8201 -183.7792,47.1046 -182.9907,47.266 -182.2163,47.4167 -181.4563,47.557 -180.7108,47.6872 -179.9797,47.8075 -179.2634,47.9184 -178.5619,48.0199 -177.8752,48.1125 -177.2036,48.1965 -176.5471,48.2721 -175.9058,48.3397 -175.2798,48.3995 -174.6692,48.4519 -174.0741,48.4972 -173.4945,48.5356 -172.9306,48.5675 -172.3824,48.5932 -171.8499,48.613 -171.3333,48.6271 -170.8325,48.636 -170.3477,48.6399 -169.8788,48.6391 -169.426,48.634 -168.9893,48.6248 -168.5687,48.6118 -168.1642,48.5955 -167.7758,48.576 -167.4037,48.5537 -167.0477,48.5289 -166.708,48.5019 -166.3844,48.4731 -166.0771,48.4427 -165.786,48.411 -165.5111,48.3784 -165.2524,48.3452 -165.0099,48.3117 -164.7836,48.2782 -164.5733,48.2449 -164.3793,48.2123 -164.2012,48.1806 -164.0393,48.1502 -163.8933,48.1213 -163.7633,48.0942 -163.6491,48.0693 -163.5509,48.0468 -163.4684,48.0272 -163.4016,48.0105 -163.3505,47.9973 -163.315,47.9877 -161.6653,47.5033 -158.3382,57.6304 -159.9537,58.2187 -159.988,58.2321 -160.037,58.2517 -160.1006,58.2779 -160.1787,58.311 -160.2711,58.3512 -160.3778,58.3988 -160.4985,58.4542 -160.6332,58.5175 -160.7817,58.589 -160.9438,58.6691 -161.1194,58.7579 -161.3084,58.8558 -161.5105,58.9631 -161.7256,59.0799 -161.9536,59.2066 -162.1943,59.3434 -162.4474,59.4905 -162.7129,59.6483 -162.9905,59.817 -163.2801,59.9967 -163.5814,60.1879 -163.8943,60.3906 -164.2185,60.6053 -164.5539,60.832 -164.9002,61.071 -165.2573,61.3226 -165.6249,61.587 -166.0029,61.8644 -166.3909,62.1551 -166.7889,62.4592 -167.1964,62.7771 -167.6134,63.1088 -168.0396,63.4546 -168.4748,63.8147 -168.9186,64.1894 -169.3709,64.5788 -169.8315,64.9831 -170.3,65.4025 -170.7763,65.8372 -171.26,66.2875 -171.751,66.7534 -172.2489,67.2352 -172.7535,67.733 -173.2646,68.2471 -173.7818,68.7775 -174.3049,69.3245 -174.8336,69.8882 -175.3676,70.4688 -175.9068,71.0664 -176.0293,71.51 -173.2132,78.0845 -172.8075,78.3019 -172.003,78.3239 -171.2142,78.3379 -170.4414,78.3441 -169.6846,78.3428 -168.9438,78.3344 -168.2191,78.3191 -167.5105,78.2973 -166.8183,78.2693 -166.1423,78.2354 -165.4826,78.1958 -164.8393,78.151 -164.2124,78.1012 -163.602,78.0468 -163.0081,77.988 -162.4306,77.9252 -161.8697,77.8587 -161.3254,77.7888 -160.7976,77.7158 -160.2863,77.6401 -159.7916,77.5619 -159.3135,77.4815 -158.8519,77.3993 -158.4069,77.3156 -157.9784,77.2307 -157.5664,77.145 -157.1709,77.0586 -156.7918,76.972 -156.4292,76.8854 -156.0829,76.7992 -155.753,76.7136 -155.4394,76.629 -155.142,76.5457 -154.8609,76.464 -154.5958,76.3842 -154.3468,76.3065 -154.1138,76.2314 -153.8967,76.1591 -153.6955,76.0898 -153.51,76.024 -153.3402,75.9619 -153.186,75.9038 -153.0472,75.85 -152.9239,75.8007 -152.8158,75.7564 -152.7229,75.7172 -152.6451,75.6835 -152.5822,75.6555 -152.5342,75.6336 -152.5009,75.618 -150.9604,74.8545 -145.9253,84.25 -147.4141,85.1099 -147.4455,85.129 -147.4904,85.1569 -147.5485,85.1937 -147.6196,85.2399 -147.7037,85.2955 -147.8004,85.3609 -147.9097,85.4364 -148.0314,85.5221 -148.1652,85.6183 -148.3109,85.7253 -148.4684,85.8433 -148.6375,85.9726 -148.818,86.1133 -149.0096,86.2657 -149.2121,86.43 -149.4253,86.6065 -149.6491,86.7954 -149.8831,86.9969 -150.1272,87.2112 -150.3812,87.4385 -150.6447,87.6791 -150.9176,87.9331 -151.1996,88.2008 -151.4906,88.4823 -151.7901,88.7778 -152.0981,89.0876 -152.4143,89.4119 -152.7383,89.7507 -153.07,90.1043 -153.409,90.4729 -153.7552,90.8567 -154.1083,91.2558 -154.4679,91.6703 -154.8339,92.1006 -155.206,92.5466 -155.5838,93.0086 -155.9672,93.4868 -156.3558,93.9812 -156.7493,94.492 -157.1475,95.0194 -157.5501,95.5635 -157.9568,96.1244 -158.3673,96.7023 -158.7813,97.2973 -159.1986,97.9095 -159.6187,98.539 -160.0415,99.1859 -160.4666,99.8504 -160.8938,100.5326 -160.9375,100.9908 -157.0225,106.9764 -156.5852,107.12 -155.7891,107.002 -155.0099,106.8788 -154.2477,106.7507 -153.5026,106.618 -152.7745,106.4811 -152.0635,106.3402 -151.3695,106.1957 -150.6926,106.0479 -150.0328,105.8971 -149.39,105.7436 -148.7643,105.5878 -148.1556,105.4299 -147.5639,105.2703 -146.9891,105.1093 -146.4314,104.9472 -145.8905,104.7843 -145.3666,104.6209 -144.8595,104.4574 -144.3691,104.294 -143.8955,104.131 -143.4386,103.9689 -142.9983,103.8078 -142.5746,103.6481 -142.1674,103.4901 -141.7765,103.3341 -141.402,103.1803 -141.0438,103.0292 -140.7017,102.881 -140.3756,102.7359 -140.0656,102.5944 -139.7714,102.4566 -139.4931,102.3229 -139.2303,102.1936 -138.9832,102.069 -138.7514,101.9493 -138.535,101.8348 -138.3338,101.7259 -138.1476,101.6228 -137.9764,101.5258 -137.8199,101.4351 -137.6782,101.3511 -137.5509,101.274 -137.4379,101.2041 -137.3392,101.1417 -137.2546,101.087 -137.1838,101.0402 -137.1267,101.0018 -137.0832,100.9719 -137.0531,100.9507 -135.6686,99.9313 -129.0785,108.3097 -130.3953,109.4151 -130.423,109.4394 -130.4623,109.4746 -130.5131,109.521 -130.5752,109.5788 -130.6483,109.6482 -130.7322,109.7294 -130.8268,109.8227 -130.9317,109.9282 -131.0467,110.0462 -131.1717,110.1769 -131.3063,110.3205 -131.4504,110.4771 -131.6037,110.647 -131.7659,110.8304 -131.9368,111.0274 -132.1162,111.2382 -132.3037,111.4631 -132.4992,111.7022 -132.7024,111.9556 -132.913,112.2236 -133.1308,112.5062 -133.3554,112.8038 -133.5867,113.1164 -133.8243,113.4441 -134.068,113.7872 -134.3175,114.1458 -134.5725,114.5199 -134.8328,114.9099 -135.098,115.3158 -135.3679,115.7376 -135.6422,116.1757 -135.9206,116.63 -136.2028,117.1007 -136.4886,117.588 -136.7775,118.0918 -137.0694,118.6125 -137.3639,119.1499 -137.6607,119.7043 -137.9596,120.2757 -138.2601,120.8642 -138.5621,121.47 -138.8652,122.093 -139.1692,122.7334 -139.4736,123.3912 -139.7782,124.0666 -140.0826,124.7595 -140.3867,125.47 -140.69,126.1982 -140.9922,126.9442 -140.9556,127.403 -136.0607,132.6178 -135.6051,132.6833 -134.8416,132.4289 -134.0956,132.1723 -133.3673,131.9138 -132.6565,131.6537 -131.9633,131.3924 -131.2875,131.1302 -130.6292,130.8674 -129.9882,130.6043 -129.3646,130.3412 -128.7582,130.0784 -128.1691,129.8163 -127.597,129.5551 -127.042,129.2952 -126.504,129.0368 -125.9829,128.7803 -125.4785,128.526 -124.9909,128.2741 -124.5199,128.025 -124.0654,127.779 -123.6273,127.5363 -123.2055,127.2972 -122.7998,127.0621 -122.4103,126.8313 -122.0366,126.6049 -121.6788,126.3834 -121.3367,126.167 -121.0102,125.956 -120.699,125.7506 -120.4031,125.5511 -120.1224,125.3579 -119.8566,125.1711 -119.6057,124.9911 -119.3694,124.8182 -119.1476,124.6525 -118.9402,124.4944 -118.7469,124.3441 -118.5677,124.2019 -118.4022,124.068 -118.2505,123.9427 -118.1121,123.8263 -117.9871,123.7189 -117.8751,123.6209 -117.7761,123.5324 -117.6897,123.4538 -117.6158,123.3852 -117.5542,123.3269 -117.5047,123.2792 -117.467,123.2421 -117.441,123.2161 -116.2546,121.9718 -108.3097,129.0785 -109.4146,130.3957 -109.4376,130.4244 -109.4702,130.466 -109.5122,130.5205 -109.5633,130.5882 -109.6233,130.6692 -109.6918,130.7638 -109.7687,130.8721 -109.8537,130.9942 -109.9465,131.1304 -110.0469,131.2808 -110.1546,131.4456 -110.2692,131.6248 -110.3907,131.8188 -110.5186,132.0275 -110.6527,132.2512 -110.7927,132.49 -110.9384,132.744 -111.0894,133.0134 -111.2455,133.2983 -111.4063,133.5987 -111.5717,133.9149 -111.7413,134.247 -111.9147,134.5949 -112.0918,134.959 -112.2723,135.3392 -112.4557,135.7356 -112.6419,136.1484 -112.8305,136.5776 -113.0212,137.0234 -113.2138,137.4857 -113.4078,137.9647 -113.6031,138.4605 -113.7993,138.9731 -113.9961,139.5025 -114.1931,140.0489 -114.3901,140.6123 -114.5868,141.1927 -114.7829,141.7902 -114.978,142.4049 -115.1718,143.0366 -115.364,143.6856 -115.5543,144.3518 -115.7424,145.0353 -115.928,145.736 -116.1107,146.4539 -116.2902,147.1892 -116.4662,147.9417 -116.6385,148.7116 -116.8066,149.4987 -116.6909,149.9441 -110.9648,154.2298 -110.5048,154.2152 -109.797,153.832 -109.1069,153.4497 -108.4345,153.0687 -107.7797,152.6892 -107.1424,152.3115 -106.5224,151.9359 -105.9197,151.5627 -105.3342,151.1923 -104.7657,150.8249 -104.2142,150.4609 -103.6795,150.1004 -103.1615,149.7439 -102.6601,149.3915 -102.1751,149.0437 -101.7064,148.7006 -101.2539,148.3625 -100.8175,148.0298 -100.3969,147.7027 -99.992,147.3814 -99.6027,147.0663 -99.2288,146.7577 -98.8701,146.4557 -98.5266,146.1607 -98.1979,145.873 -97.884,145.5927 -97.5847,145.3201 -97.2997,145.0556 -97.029,144.7993 -96.7722,144.5515 -96.5293,144.3124 -96.3,144.0824 -96.0841,143.8615 -95.8814,143.6502 -95.6918,143.4485 -95.515,143.2568 -95.3508,143.0752 -95.1989,142.904 -95.0593,142.7435 -94.9315,142.5937 -94.8155,142.455 -94.711,142.3276 -94.6178,142.2116 -94.5356,142.1073 -94.4642,142.0149 -94.4033,141.9345 -94.3528,141.8664 -94.3123,141.8107 -94.2817,141.7677 -94.2606,141.7376 -93.3083,140.3061 -84.25,145.9253 -85.1094,147.4144 -85.127,147.4466 -85.152,147.4932 -85.1838,147.5542 -85.2224,147.6297 -85.2674,147.7199 -85.3185,147.825 -85.3754,147.945 -85.4379,148.08 -85.5056,148.2302 -85.5784,148.3958 -85.6558,148.5767 -85.7376,148.7732 -85.8235,148.9853 -85.9132,149.2131 -86.0064,149.4567 -86.1029,149.7161 -86.2022,149.9916 -86.3041,150.2831 -86.4084,150.5907 -86.5146,150.9146 -86.6226,151.2547 -86.7319,151.6111 -86.8423,151.9839 -86.9535,152.3732 -87.0652,152.7789 -87.177,153.2012 -87.2887,153.6401 -87.3999,154.0955 -87.5103,154.5676 -87.6197,155.0564 -87.7276,155.5618 -87.8338,156.0839 -87.938,156.6228 -88.0398,157.1784 -88.139,157.7507 -88.2352,158.3397 -88.3282,158.9455 -88.4175,159.568 -88.5029,160.2071 -88.584,160.863 -88.6606,161.5355 -88.7324,162.2246 -88.7989,162.9303 -88.86,163.6526 -88.9152,164.3914 -88.9644,165.1466 -89.007,165.9183 -89.043,166.7063 -89.0718,167.5107 -88.8806,167.9293 -82.4973,171.1555 -82.0468,171.0612 -81.4163,170.561 -80.8031,170.0647 -80.2071,169.5727 -79.6281,169.0852 -79.066,168.6026 -78.5207,168.1251 -77.992,167.6529 -77.4797,167.1865 -76.9836,166.726 -76.5037,166.2717 -76.0397,165.8238 -75.5915,165.3828 -75.1589,164.9487 -74.7417,164.5219 -74.3397,164.1026 -73.9528,163.6911 -73.5807,163.2876 -73.2233,162.8925 -72.8804,162.5058 -72.5517,162.1279 -72.2371,161.759 -71.9363,161.3994 -71.6492,161.0492 -71.3755,160.7087 -71.115,160.3782 -70.8676,160.0578 -70.6329,159.7478 -70.4107,159.4484 -70.2009,159.1597 -70.0032,158.8821 -69.8173,158.6158 -69.6431,158.3608 -69.4802,158.1174 -69.3285,157.8859 -69.1876,157.6664 -69.0574,157.4591 -68.9376,157.2641 -68.828,157.0817 -68.7282,156.9121 -68.638,156.7554 -68.5572,156.6117 -68.4856,156.4813 -68.4227,156.3643 -68.3684,156.2609 -68.3225,156.1711 -68.2845,156.0953 -68.2543,156.0335 -68.2316,155.9858 -68.2161,155.9524 -67.5268,154.3774 -57.6304,158.3382 -58.2181,159.9539 -58.2299,159.9887 -58.2464,160.0389 -58.2672,160.1045 -58.2921,160.1856 -58.3207,160.2822 -58.3527,160.3946 -58.388,160.5226 -58.4261,160.6665 -58.4667,160.8262 -58.5096,161.0019 -58.5544,161.1935 -58.6008,161.4012 -58.6486,161.6249 -58.6974,161.8649 -58.7469,162.1209 -58.7968,162.3932 -58.8468,162.6817 -58.8966,162.9865 -58.9458,163.3076 -58.9942,163.645 -59.0415,163.9986 -59.0873,164.3686 -59.1313,164.755 -59.1732,165.1576 -59.2127,165.5766 -59.2495,166.0119 -59.2833,166.4634 -59.3137,166.9313 -59.3405,167.4154 -59.3633,167.9157 -59.3818,168.4322 -59.3957,168.9649 -59.4048,169.5136 -59.4086,170.0785 -59.4069,170.6593 -59.3993,171.2561 -59.3857,171.8688 -59.3655,172.4973 -59.3386,173.1416 -59.3047,173.8016 -59.2633,174.4771 -59.2143,175.1683 -59.1573,175.8748 -59.092,176.5967 -59.0182,177.3339 -58.9354,178.0862 -58.8434,178.8536 -58.742,179.6359 -58.6307,180.433 -58.3696,180.812 -51.5231,182.8808 -51.0958,182.7097 -50.5618,182.1076 -50.0441,181.5123 -49.5426,180.9243 -49.057,180.3437 -48.5873,179.7708 -48.1332,179.2058 -47.6945,178.6491 -47.271,178.1007 -46.8624,177.5611 -46.4687,177.0303 -46.0895,176.5088 -45.7247,175.9965 -45.374,175.4939 -45.0373,175.0012 -44.7142,174.5185 -44.4046,174.046 -44.1083,173.5841 -43.8249,173.1329 -43.5543,172.6925 -43.2962,172.2633 -43.0505,171.8454 -42.8167,171.439 -42.5948,171.0442 -42.3844,170.6614 -42.1853,170.2907 -41.9972,169.9322 -41.8199,169.5861 -41.6531,169.2527 -41.4966,168.932 -41.3501,168.6243 -41.2133,168.3297 -41.086,168.0483 -40.9678,167.7804 -40.8586,167.526 -40.758,167.2854 -40.6658,167.0586 -40.5817,166.8458 -40.5053,166.6472 -40.4365,166.4628 -40.375,166.2928 -40.3204,166.1373 -40.2724,165.9964 -40.2308,165.8702 -40.1953,165.759 -40.1657,165.6626 -40.1415,165.5813 -40.1225,165.5152 -40.1084,165.4643 -40.0989,165.4288 -39.6936,163.758 -29.2597,165.9401 -29.558,167.6333 -29.5635,167.6697 -29.571,167.722 -29.5801,167.7902 -29.5905,167.8743 -29.6019,167.9745 -29.614,168.0907 -29.6265,168.2229 -29.639,168.3712 -29.6513,168.5355 -29.663,168.716 -29.6739,168.9125 -29.6835,169.1251 -29.6917,169.3537 -29.6981,169.5985 -29.7024,169.8592 -29.7043,170.1361 -29.7034,170.4289 -29.6995,170.7377 -29.6923,171.0624 -29.6813,171.4031 -29.6665,171.7596 -29.6473,172.1319 -29.6235,172.52 -29.5949,172.9238 -29.5611,173.3433 -29.5217,173.7784 -29.4765,174.2289 -29.4253,174.6949 -29.3676,175.1763 -29.3031,175.673 -29.2317,176.1849 -29.1529,176.7119 -29.0665,177.2539 -28.9722,177.8108 -28.8697,178.3825 -28.7586,178.9689 -28.6388,179.5699 -28.5098,180.1854 -28.3714,180.8152 -28.2234,181.4593 -28.0654,182.1174 -27.8971,182.7895 -27.7183,183.4754 -27.5286,184.175 -27.3278,184.8882 -27.1157,185.6147 -26.8919,186.3544 -26.6561,187.1072 -26.4081,187.8729 -26.0852,188.2009 -18.9834,189.0493 -18.5924,188.8066 -18.171,188.1209 -17.7645,187.4448 -17.3727,186.7786 -16.9954,186.1225 -16.6323,185.4768 -16.2832,184.8415 -15.9478,184.2171 -15.6259,183.6035 -15.3173,183.0011 -15.0217,182.4101 -14.7389,181.8306 -14.4686,181.2628 -14.2105,180.7069 -13.9644,180.1632 -13.7301,179.6317 -13.5072,179.1127 -13.2956,178.6063 -13.0949,178.1127 -12.9049,177.632 -12.7253,177.1645 -12.5558,176.7103 -12.3962,176.2695 -12.2461,175.8422 -12.1054,175.4287 -11.9737,175.029 -11.8507,174.6433 -11.7362,174.2717 -11.6299,173.9143 -11.5314,173.5714 -11.4406,173.2429 -11.357,172.929 -11.2805,172.6298 -11.2107,172.3454 -11.1473,172.076 -11.09,171.8215 -11.0386,171.5822 -10.9927,171.358 -10.952,171.1491 -10.9163,170.9556 -10.8852,170.7774 -10.8584,170.6148 -10.8356,170.4678 -10.8166,170.3363 -10.8009,170.2206 -10.7884,170.1205 -10.7787,170.0363 -10.7715,169.9679 -10.7665,169.9153 -10.7633,169.8786 -10.6543,168.1628 0,168.5 0.0003,170.2193 0.0011,170.2561 0.0028,170.3088 0.0057,170.3776 0.0101,170.4623 0.0163,170.5629 0.0245,170.6794 0.0352,170.8118 0.0486,170.96 0.0651,171.124 0.0849,171.3037 0.1083,171.4991 0.1357,171.7102 0.1673,171.9368 0.2035,172.1789 0.2446,172.4365 0.2908,172.7094 0.3425,172.9976 0.4,173.3011 0.4635,173.6196 0.5334,173.9532 0.61,174.3017 0.6935,174.665 0.7843,175.0431 0.8826,175.4358 0.9888,175.843 1.1031,176.2647 1.2258,176.7005 1.3572,177.1506 1.4976,177.6146 1.6473,178.0926 1.8066,178.5843 1.9757,179.0896 2.1549,179.6083 2.3445,180.1404 2.5447,180.6856 2.7559,181.2439 2.9783,181.8149 3.2122,182.3986 3.4578,182.9949 3.7155,183.6034 3.9854,184.2241 4.2678,184.8568 4.563,185.5013 4.8713,186.1573 5.1928,186.8247 5.5279,187.5034 5.8768,188.193 6.2397,188.8934 6.6169,189.6044 6.9918,189.8713 14.133,189.4736 14.476,189.1668 14.7719,188.4183 15.0548,187.6819 15.325,186.9578 15.5826,186.2461 15.8281,185.5471 16.0616,184.8609 16.2834,184.1877 16.4939,183.5276 16.6932,182.8807 16.8817,182.2473 17.0596,181.6275 17.2272,181.0214 17.3848,180.4292 17.5327,179.851 17.6712,179.2869 17.8006,178.7371 17.9211,178.2016 18.033,177.6807 18.1367,177.1743 18.2324,176.6827 18.3204,176.2059 18.401,175.7441 18.4746,175.2973 18.5414,174.8656 18.6017,174.4491 18.6558,174.0479 18.704,173.6621 18.7467,173.2917 18.7841,172.9368 18.8165,172.5976 18.8443,172.2739 18.8677,171.966 18.8871,171.6738 18.9027,171.3974 18.915,171.1369 18.9241,170.8923 18.9303,170.6635 18.9341,170.4508 18.9357,170.2539 18.9354,170.0731 18.9335,169.9083 18.9304,169.7596 18.9263,169.6268 18.9216,169.5101 18.9166,169.4094 18.9115,169.3248 18.9068,169.2561 18.9026,169.2035 18.8993,169.1668 18.7087,167.4582 29.2597,165.9401 29.5586,167.6332 29.5658,167.6693 29.5766,167.721 29.5914,167.7882 29.6104,167.8708 29.6339,167.9688 29.6623,168.0821 29.6958,168.2107 29.7348,168.3543 29.7795,168.5129 29.8301,168.6865 29.8872,168.8749 29.9508,169.0779 30.0213,169.2956 30.099,169.5278 30.1841,169.7743 30.2771,170.0351 30.378,170.3099 30.4873,170.5988 30.6052,170.9014 30.732,171.2178 30.8679,171.5477 31.0132,171.8911 31.1683,172.2476 31.3333,172.6173 31.5086,172.9999 31.6944,173.3953 31.8909,173.8032 32.0985,174.2236 32.3174,174.6562 32.5478,175.1009 32.79,175.5575 33.0442,176.0257 33.3108,176.5055 33.5899,176.9965 33.8818,177.4987 34.1867,178.0118 34.5049,178.5356 34.8366,179.0698 35.182,179.6143 35.5414,180.1689 35.915,180.7333 36.303,181.3073 36.7057,181.8907 37.1232,182.4833 37.5557,183.0847 38.0036,183.6949 38.4669,184.3134 38.9459,184.9402 39.4408,185.5749 39.8564,185.7726 46.8201,184.1409 47.1046,183.7792 47.266,182.9907 47.4167,182.2163 47.557,181.4563 47.6872,180.7108 47.8075,179.9797 47.9184,179.2634 48.0199,178.5619 48.1125,177.8752 48.1965,177.2036 48.2721,176.5471 48.3397,175.9058 48.3995,175.2798 48.4519,174.6692 48.4972,174.0741 48.5356,173.4945 48.5675,172.9306 48.5932,172.3824 48.613,171.8499 48.6271,171.3333 48.636,170.8325 48.6399,170.3477 48.6391,169.8788 48.634,169.426 48.6248,168.9893 48.6118,168.5687 48.5955,168.1642 48.576,167.7758 48.5537,167.4037 48.5289,167.0477 48.5019,166.708 48.4731,166.3844 48.4427,166.0771 48.411,165.786 48.3784,165.5111 48.3452,165.2524 48.3117,165.0099 48.2782,164.7836 48.2449,164.5733 48.2123,164.3793 48.1806,164.2012 48.1502,164.0393 48.1213,163.8933 48.0942,163.7633 48.0693,163.6491 48.0468,163.5509 48.0272,163.4684 48.0105,163.4016 47.9973,163.3505 47.9877,163.315 47.5033,161.6653 57.6304,158.3382 58.2187,159.9537 58.2321,159.988 58.2517,160.037 58.2779,160.1006 58.311,160.1787 58.3512,160.2711 58.3988,160.3778 58.4542,160.4985 58.5175,160.6332 58.589,160.7817 58.6691,160.9438 58.7579,161.1194 58.8558,161.3084 58.9631,161.5105 59.0799,161.7256 59.2066,161.9536 59.3434,162.1943 59.4905,162.4474 59.6483,162.7129 59.817,162.9905 59.9967,163.2801 60.1879,163.5814 60.3906,163.8943 60.6053,164.2185 60.832,164.5539 61.071,164.9002 61.3226,165.2573 61.587,165.6249 61.8644,166.0029 62.1551,166.3909 62.4592,166.7889 62.7771,167.1964 63.1088,167.6134 63.4546,168.0396 63.8147,168.4748 64.1894,168.9186 64.5788,169.3709 64.9831,169.8315 65.4025,170.3 65.8372,170.7763 66.2875,171.26 66.7534,171.751 67.2352,172.2489 67.733,172.7535 68.2471,173.2646 68.7775,173.7818 69.3245,174.3049 69.8882,174.8336 70.4688,175.3676 71.0664,175.9068 71.51,176.0293 78.0845,173.2132 78.3019,172.8075 78.3239,172.003 78.3379,171.2142 78.3441,170.4414 78.3428,169.6846 78.3344,168.9438 78.3191,168.2191 78.2973,167.5105 78.2693,166.8183 78.2354,166.1423 78.1958,165.4826 78.151,164.8393 78.1012,164.2124 78.0468,163.602 77.988,163.0081 77.9252,162.4306 77.8587,161.8697 77.7888,161.3254 77.7158,160.7976 77.6401,160.2863 77.5619,159.7916 77.4815,159.3135 77.3993,158.8519 77.3156,158.4069 77.2307,157.9784 77.145,157.5664 77.0586,157.1709 76.972,156.7918 76.8854,156.4292 76.7992,156.0829 76.7136,155.753 76.629,155.4394 76.5457,155.142 76.464,154.8609 76.3842,154.5958 76.3065,154.3468 76.2314,154.1138 76.1591,153.8967 76.0898,153.6955 76.024,153.51 75.9619,153.3402 75.9038,153.186 75.85,153.0472 75.8007,152.9239 75.7564,152.8158 75.7172,152.7229 75.6835,152.6451 75.6555,152.5822 75.6336,152.5342 75.618,152.5009 74.8545,150.9604 84.25,145.9253 85.1099,147.4141 85.129,147.4455 85.1569,147.4904 85.1937,147.5485 85.2399,147.6196 85.2955,147.7037 85.3609,147.8004 85.4364,147.9097 85.5221,148.0314 85.6183,148.1652 85.7253,148.3109 85.8433,148.4684 85.9726,148.6375 86.1133,148.818 86.2657,149.0096 86.43,149.2121 86.6065,149.4253 86.7954,149.6491 86.9969,149.8831 87.2112,150.1272 87.4385,150.3812 87.6791,150.6447 87.9331,150.9176 88.2008,151.1996 88.4823,151.4906 88.7778,151.7901 89.0876,152.0981 89.4119,152.4143 89.7507,152.7383 90.1043,153.07 90.4729,153.409 90.8567,153.7552 91.2558,154.1083 91.6703,154.4679 92.1006,154.8339 92.5466,155.206 93.0086,155.5838 93.4868,155.9672 93.9812,156.3558 94.492,156.7493 95.0194,157.1475 95.5635,157.5501 96.1244,157.9568 96.7023,158.3673 97.2973,158.7813 97.9095,159.1986 98.539,159.6187 99.1859,160.0415 99.8504,160.4666 100.5326,160.8938 100.9908,160.9375 106.9764,157.0225 107.12,156.5852 107.002,155.7891 106.8788,155.0099 106.7507,154.2477 106.618,153.5026 106.4811,152.7745 106.3402,152.0635 106.1957,151.3695 106.0479,150.6926 105.8971,150.0328 105.7436,149.39 105.5878,148.7643 105.4299,148.1556 105.2703,147.5639 105.1093,146.9891 104.9472,146.4314 104.7843,145.8905 104.6209,145.3666 104.4574,144.8595 104.294,144.3691 104.131,143.8955 103.9689,143.4386 103.8078,142.9983 103.6481,142.5746 103.4901,142.1674 103.3341,141.7765 103.1803,141.402 103.0292,141.0438 102.881,140.7017 102.7359,140.3756 102.5944,140.0656 102.4566,139.7714 102.3229,139.4931 102.1936,139.2303 102.069,138.9832 101.9493,138.7514 101.8348,138.535 101.7259,138.3338 101.6228,138.1476 101.5258,137.9764 101.4351,137.8199 101.3511,137.6782 101.274,137.5509 101.2041,137.4379 101.1417,137.3392 101.087,137.2546 101.0402,137.1838 101.0018,137.1267 100.9719,137.0832 100.9507,137.0531 99.9313,135.6686 108.3097,129.0785 109.4151,130.3953 109.4394,130.423 109.4746,130.4623 109.521,130.5131 109.5788,130.5752 109.6482,130.6483 109.7294,130.7322 109.8227,130.8268 109.9282,130.9317 110.0462,131.0467 110.1769,131.1717 110.3205,131.3063 110.4771,131.4504 110.647,131.6037 110.8304,131.7659 111.0274,131.9368 111.2382,132.1162 111.4631,132.3037 111.7022,132.4992 111.9556,132.7024 112.2236,132.913 112.5062,133.1308 112.8038,133.3554 113.1164,133.5867 113.4441,133.8243 113.7872,134.068 114.1458,134.3175 114.5199,134.5725 114.9099,134.8328 115.3158,135.098 115.7376,135.3679 116.1757,135.6422 116.63,135.9206 117.1007,136.2028 117.588,136.4886 118.0918,136.7775 118.6125,137.0694 119.1499,137.3639 119.7043,137.6607 120.2757,137.9596 120.8642,138.2601 121.47,138.5621 122.093,138.8652 122.7334,139.1692 123.3912,139.4736 124.0666,139.7782 124.7595,140.0826 125.47,140.3867 126.1982,140.69 126.9442,140.9922 127.403,140.9556 132.6178,136.0607 132.6833,135.6051 132.4289,134.8416 132.1723,134.0956 131.9138,133.3673 131.6537,132.6565 131.3924,131.9633 131.1302,131.2875 130.8674,130.6292 130.6043,129.9882 130.3412,129.3646 130.0784,128.7582 129.8163,128.1691 129.5551,127.597 129.2952,127.042 129.0368,126.504 128.7803,125.9829 128.526,125.4785 128.2741,124.9909 128.025,124.5199 127.779,124.0654 127.5363,123.6273 127.2972,123.2055 127.0621,122.7998 126.8313,122.4103 126.6049,122.0366 126.3834,121.6788 126.167,121.3367 125.956,121.0102 125.7506,120.699 125.5511,120.4031 125.3579,120.1224 125.1711,119.8566 124.9911,119.6057 124.8182,119.3694 124.6525,119.1476 124.4944,118.9402 124.3441,118.7469 124.2019,118.5677 124.068,118.4022 123.9427,118.2505 123.8263,118.1121 123.7189,117.9871 123.6209,117.8751 123.5324,117.7761 123.4538,117.6897 123.3852,117.6158 123.3269,117.5542 123.2792,117.5047 123.2421,117.467 123.2161,117.441 121.9718,116.2546 129.0785,108.3097 130.3957,109.4146 130.4244,109.4376 130.466,109.4702 130.5205,109.5122 130.5882,109.5633 130.6692,109.6233 130.7638,109.6918 130.8721,109.7687 130.9942,109.8537 131.1304,109.9465 131.2808,110.0469 131.4456,110.1546 131.6248,110.2692 131.8188,110.3907 132.0275,110.5186 132.2512,110.6527 132.49,110.7927 132.744,110.9384 133.0134,111.0894 133.2983,111.2455 133.5987,111.4063 133.9149,111.5717 134.247,111.7413 134.5949,111.9147 134.959,112.0918 135.3392,112.2723 135.7356,112.4557 136.1484,112.6419 136.5776,112.8305 137.0234,113.0212 137.4857,113.2138 137.9647,113.4078 138.4605,113.6031 138.9731,113.7993 139.5025,113.9961 140.0489,114.1931 140.6123,114.3901 141.1927,114.5868 141.7902,114.7829 142.4049,114.978 143.0366,115.1718 143.6856,115.364 144.3518,115.5543 145.0353,115.7424 145.736,115.928 146.4539,116.1107 147.1892,116.2902 147.9417,116.4662 148.7116,116.6385 149.4987,116.8066 149.9441,116.6909 154.2298,110.9648 154.2152,110.5048 153.832,109.797 153.4497,109.1069 153.0687,108.4345 152.6892,107.7797 152.3115,107.1424 151.9359,106.5224 151.5627,105.9197 151.1923,105.3342 150.8249,104.7657 150.4609,104.2142 150.1004,103.6795 149.7439,103.1615 149.3915,102.6601 149.0437,102.1751 148.7006,101.7064 148.3625,101.2539 148.0298,100.8175 147.7027,100.3969 147.3814,99.992 147.0663,99.6027 146.7577,99.2288 146.4557,98.8701 146.1607,98.5266 145.873,98.1979 145.5927,97.884 145.3201,97.5847 145.0556,97.2997 144.7993,97.029 144.5515,96.7722 144.3124,96.5293 144.0824,96.3 143.8615,96.0841 143.6502,95.8814 143.4485,95.6918 143.2568,95.515 143.0752,95.3508 142.904,95.1989 142.7435,95.0593 142.5937,94.9315 142.455,94.8155 142.3276,94.711 142.2116,94.6178 142.1073,94.5356 142.0149,94.4642 141.9345,94.4033 141.8664,94.3528 141.8107,94.3123 141.7677,94.2817 141.7376,94.2606 140.3061,93.3083 145.9253,84.25 147.4144,85.1094 147.4466,85.127 147.4932,85.152 147.5542,85.1838 147.6297,85.2224 147.7199,85.2674 147.825,85.3185 147.945,85.3754 148.08,85.4379 148.2302,85.5056 148.3958,85.5784 148.5767,85.6558 148.7732,85.7376 148.9853,85.8235 149.2131,85.9132 149.4567,86.0064 149.7161,86.1029 149.9916,86.2022 150.2831,86.3041 150.5907,86.4084 150.9146,86.5146 151.2547,86.6226 151.6111,86.7319 151.9839,86.8423 152.3732,86.9535 152.7789,87.0652 153.2012,87.177 153.6401,87.2887 154.0955,87.3999 154.5676,87.5103 155.0564,87.6197 155.5618,87.7276 156.0839,87.8338 156.6228,87.938 157.1784,88.0398 157.7507,88.139 158.3397,88.2352 158.9455,88.3282 159.568,88.4175 160.2071,88.5029 160.863,88.584 161.5355,88.6606 162.2246,88.7324 162.9303,88.7989 163.6526,88.86 164.3914,88.9152 165.1466,88.9644 165.9183,89.007 166.7063,89.043 167.5107,89.0718 167.9293,88.8806 171.1555,82.4973 171.0612,82.0468 170.561,81.4163 170.0647,80.8031 169.5727,80.2071 169.0852,79.6281 168.6026,79.066 168.1251,78.5207 167.6529,77.992 167.1865,77.4797 166.726,76.9836 166.2717,76.5037 165.8238,76.0397 165.3828,75.5915 164.9487,75.1589 164.5219,74.7417 164.1026,74.3397 163.6911,73.9528 163.2876,73.5807 162.8925,73.2233 162.5058,72.8804 162.1279,72.5517 161.759,72.2371 161.3994,71.9363 161.0492,71.6492 160.7087,71.3755 160.3782,71.115 160.0578,70.8676 159.7478,70.6329 159.4484,70.4107 159.1597,70.2009 158.8821,70.0032 158.6158,69.8173 158.3608,69.6431 158.1174,69.4802 157.8859,69.3285 157.6664,69.1876 157.4591,69.0574 157.2641,68.9376 157.0817,68.828 156.9121,68.7282 156.7554,68.638 156.6117,68.5572 156.4813,68.4856 156.3643,68.4227 156.2609,68.3684 156.1711,68.3225 156.0953,68.2845 156.0335,68.2543 155.9858,68.2316 155.9524,68.2161 154.3774,67.5268 158.3382,57.6304 159.9539,58.2181 159.9887,58.2299 160.0389,58.2464 160.1045,58.2672 160.1856,58.2921 160.2822,58.3207 160.3946,58.3527 160.5226,58.388 160.6665,58.4261 160.8262,58.4667 161.0019,58.5096 161.1935,58.5544 161.4012,58.6008 161.6249,58.6486 161.8649,58.6974 162.1209,58.7469 162.3932,58.7968 162.6817,58.8468 162.9865,58.8966 163.3076,58.9458 163.645,58.9942 163.9986,59.0415 164.3686,59.0873 164.755,59.1313 165.1576,59.1732 165.5766,59.2127 166.0119,59.2495 166.4634,59.2833 166.9313,59.3137 167.4154,59.3405 167.9157,59.3633 168.4322,59.3818 168.9649,59.3957 169.5136,59.4048 170.0785,59.4086 170.6593,59.4069 171.2561,59.3993 171.8688,59.3857 172.4973,59.3655 173.1416,59.3386 173.8016,59.3047 174.4771,59.2633 175.1683,59.2143 175.8748,59.1573 176.5967,59.092 177.3339,59.0182 178.0862,58.9354 178.8536,58.8434 179.6359,58.742 180.433,58.6307 180.812,58.3696 182.8808,51.5231 182.7097,51.0958 182.1076,50.5618 181.5123,50.0441 180.9243,49.5426 180.3437,49.057 179.7708,48.5873 179.2058,48.1332 178.6491,47.6945 178.1007,47.271 177.5611,46.8624 177.0303,46.4687 176.5088,46.0895 175.9965,45.7247 175.4939,45.374 175.0012,45.0373 174.5185,44.7142 174.046,44.4046 173.5841,44.1083 173.1329,43.8249 172.6925,43.5543 172.2633,43.2962 171.8454,43.0505 171.439,42.8167 171.0442,42.5948 170.6614,42.3844 170.2907,42.1853 169.9322,41.9972 169.5861,41.8199 169.2527,41.6531 168.932,41.4966 168.6243,41.3501 168.3297,41.2133 168.0483,41.086 167.7804,40.9678 167.526,40.8586 167.2854,40.758 167.0586,40.6658 166.8458,40.5817 166.6472,40.5053 166.4628,40.4365 166.2928,40.375 166.1373,40.3204 165.9964,40.2724 165.8702,40.2308 165.759,40.1953 165.6626,40.1657 165.5813,40.1415 165.5152,40.1225 165.4643,40.1084 165.4288,40.0989 163.758,39.6936 165.9401,29.2597 167.6333,29.558 167.6697,29.5635 167.722,29.571 167.7902,29.5801 167.8743,29.5905 167.9745,29.6019 168.0907,29.614 168.2229,29.6265 168.3712,29.639 168.5355,29.6513 168.716,29.663 168.9125,29.6739 169.1251,29.6835 169.3537,29.6917 169.5985,29.6981 169.8592,29.7024 170.1361,29.7043 170.4289,29.7034 170.7377,29.6995 171.0624,29.6923 171.4031,29.6813 171.7596,29.6665 172.1319,29.6473 172.52,29.6235 172.9238,29.5949 173.3433,29.5611 173.7784,29.5217 174.2289,29.4765 174.6949,29.4253 175.1763,29.3676 175.673,29.3031 176.1849,29.2317 176.7119,29.1529 177.2539,29.0665 177.8108,28.9722 178.3825,28.8697 178.9689,28.7586 179.5699,28.6388 180.1854,28.5098 180.8152,28.3714 181.4593,28.2234 182.1174,28.0654 182.7895,27.8971 183.4754,27.7183 184.175,27.5286 184.8882,27.3278 185.6147,27.1157 186.3544,26.8919 187.1072,26.6561 187.8729,26.4081 188.2009,26.0852 189.0493,18.9834 188.8066,18.5924 188.1209,18.171 187.4448,17.7645 186.7786,17.3727 186.1225,16.9954 185.4768,16.6323 184.8415,16.2832 184.2171,15.9478 183.6035,15.6259 183.0011,15.3173 182.4101,15.0217 181.8306,14.7389 181.2628,14.4686 180.7069,14.2105 180.1632,13.9644 179.6317,13.7301 179.1127,13.5072 178.6063,13.2956 178.1127,13.0949 177.632,12.9049 177.1645,12.7253 176.7103,12.5558 176.2695,12.3962 175.8422,12.2461 175.4287,12.1054 175.029,11.9737 174.6433,11.8507 174.2717,11.7362 173.9143,11.6299 173.5714,11.5314 173.2429,11.4406 172.929,11.357 172.6298,11.2805 172.3454,11.2107 172.076,11.1473 171.8215,11.09 171.5822,11.0386 171.358,10.9927 171.1491,10.952 170.9556,10.9163 170.7774,10.8852 170.6148,10.8584 170.4678,10.8356 170.3363,10.8166 170.2206,10.8009 170.1205,10.7884 170.0363,10.7787 169.9679,10.7715 169.9153,10.7665 169.8786,10.7633 168.1628,10.6543 "/><g class="guides"><polyline fill="none" stroke="#444" stroke-width="0.5" stroke-miterlimit="10" points="10,0 -10,0"/><polyline fill="none" stroke="#444" stroke-width="0.5" stroke-miterlimit="10" points="0,10 0,-10"/></g><circle fill="#c00" class="firstmarker" stroke="none" stroke-miterlimit="10" cx="179.7215" cy="-10.0083" r="3.925"/><g class="geartext"><g class="text"><polyline fill="none" stroke="#444" stroke-width="0.5" stroke-linecap="square" stroke-miterlimit="1"  points="114.59 -102.14 113.58 -103.25 112.57 -104.36 111.54 -105.45 110.51 -106.54 "/><polyline fill="none" stroke="#444" stroke-width="0.5" stroke-linecap="square" stroke-miterlimit="1"  points="110.37 -102.32 114.77 -106.4 "/><polyline fill="none" stroke="#444" stroke-width="0.5" stroke-linecap="square" stroke-miterlimit="1"  points="116.83 -104.13 114.69 -104.26 112.57 -104.36 110.45 -104.42 108.35 -104.45 "/><polyline fill="none" stroke="#444" stroke-width="0.5" stroke-linecap="square" stroke-miterlimit="1"  points="112.35 -100.14 112.47 -102.24 112.57 -104.36 112.63 -106.48 112.67 -108.62 "/><polyline fill="none" stroke="#444" stroke-width="0.5" stroke-linecap="square" stroke-miterlimit="1"  points="117.1 -94.53 115.02 -94.72 114.09 -95.84 114.28 -97.93 118.84 -101.83 120.98 -101.63 121.96 -100.44 121.77 -98.3 117.1 -94.53 "/><polyline fill="none" stroke="#444" stroke-width="0.5" stroke-linecap="square" stroke-miterlimit="1"  points="132.88 -85.48 125.31 -80.61 126.4 -83.07 127.45 -85.56 128.46 -88.07 129.44 -90.61 122.06 -85.45 "/><polyline fill="none" stroke="#444" stroke-width="0.5" stroke-linecap="square" stroke-miterlimit="1"  points="135.05 -76.08 134.3 -77.39 133.53 -78.7 132.76 -80 131.97 -81.3 "/><polyline fill="none" stroke="#444" stroke-width="0.5" stroke-linecap="square" stroke-miterlimit="1"  points="132.43 -74.6 131.7 -75.89 130.95 -77.18 130.19 -78.45 129.42 -79.72 "/><polyline fill="none" stroke="#444" stroke-width="0.5" stroke-linecap="square" stroke-miterlimit="1"  points="137.83 -74.13 139.87 -73.48 140.58 -72.11 141.28 -70.73 140.62 -68.69 139.27 -68.03 137.26 -68.72 136.58 -66.72 135.23 -66.06 133.23 -66.7 132.58 -68 131.91 -69.3 132.54 -71.29 "/><polyline fill="none" stroke="#444" stroke-width="0.5" stroke-linecap="square" stroke-miterlimit="1"  points="136.58 -70.06 137.26 -68.72 "/><polyline fill="none" stroke="#444" stroke-width="0.5" stroke-linecap="square" stroke-miterlimit="1"  points="139.21 -64.67 139.84 -63.3 140.45 -61.93 141.05 -60.56 140.25 -58.6 138.87 -58.02 136.91 -58.78 136.33 -60.12 135.74 -61.45 136.49 -63.4 140.57 -65.3 142.57 -64.54 144.57 -63.75 145.18 -62.33 "/><polyline fill="none" stroke="#444" stroke-width="0.5" stroke-linecap="square" stroke-miterlimit="1"  points="145.35 -49.36 145.82 -47.93 146.29 -46.51 146.73 -45.08 148.6 -44.07 150.04 -44.49 151.03 -46.4 150.57 -47.87 150.1 -49.34 149.61 -50.8 141.09 -47.91 "/><polyline fill="none" stroke="#444" stroke-width="0.5" stroke-linecap="square" stroke-miterlimit="1"  points="143.65 -39.56 149.44 -41.15 "/><polyline fill="none" stroke="#444" stroke-width="0.5" stroke-linecap="square" stroke-miterlimit="1"  points="150.88 -41.55 152.33 -41.95 "/><polyline fill="none" stroke="#444" stroke-width="0.5" stroke-linecap="square" stroke-miterlimit="1"  points="147.19 -31.39 145.41 -32.5 146.55 -34.26 153.85 -35.97 "/><polyline fill="none" stroke="#444" stroke-width="0.5" stroke-linecap="square" stroke-miterlimit="1"  points="151.59 -32.33 151.27 -33.81 150.93 -35.28 150.58 -36.76 150.21 -38.23 "/><polyline fill="none" stroke="#444" stroke-width="0.5" stroke-linecap="square" stroke-miterlimit="1"  points="147.29 -22.48 147.07 -23.92 146.83 -25.36 146.57 -26.79 147.78 -28.51 150.72 -29.07 152.47 -27.87 152.74 -26.38 152.99 -24.88 153.23 -23.39 "/><polyline fill="none" stroke="#444" stroke-width="0.5" stroke-linecap="square" stroke-miterlimit="1"  points="150.68 -19.99 152.36 -18.7 154.02 -17.38 154.18 -15.88 152.84 -14.23 148.36 -13.81 "/><polyline fill="none" stroke="#444" stroke-width="0.5" stroke-linecap="square" stroke-miterlimit="1"  points="147.71 -19.6 156.63 -20.78 "/><polyline fill="none" stroke="#444" stroke-width="0.5" stroke-linecap="square" stroke-miterlimit="1"  points="148.96 -3.64 148.98 -2.18 149 -0.73 149 0.73 150.48 2.21 156.48 2.29 158 0.77 158 -0.77 157.98 -2.32 157.95 -3.86 "/><polyline fill="none" stroke="#444" stroke-width="0.5" stroke-linecap="square" stroke-miterlimit="1"  points="157.98 -2.32 148.98 -2.18 "/><polyline fill="none" stroke="#444" stroke-width="0.5" stroke-linecap="square" stroke-miterlimit="1"  points="154.58 11.35 154.69 9.84 154.78 8.33 154.85 6.81 154.91 5.3 "/><polyline fill="none" stroke="#444" stroke-width="0.5" stroke-linecap="square" stroke-miterlimit="1"  points="151.59 11.13 151.69 9.65 151.78 8.17 151.85 6.68 151.91 5.2 "/><polyline fill="none" stroke="#444" stroke-width="0.5" stroke-linecap="square" stroke-miterlimit="1"  points="157.32 14.65 157.17 16.18 157 17.72 156.82 19.25 156.63 20.78 152.36 18.7 148.06 16.71 "/><polyline fill="none" stroke="#444" stroke-width="0.5" stroke-linecap="square" stroke-miterlimit="1"  points="148.78 22.71 147.29 22.48 "/><polyline fill="none" stroke="#444" stroke-width="0.5" stroke-linecap="square" stroke-miterlimit="1"  points="145.72 31.07 146.02 29.65 146.3 28.22 146.57 26.79 146.83 25.36 149.78 25.87 151 27.6 150.72 29.07 150.43 30.54 151.59 32.33 153.06 32.64 154.84 31.44 155.14 29.93 155.43 28.41 154.22 26.63 "/><polyline fill="none" stroke="#444" stroke-width="0.5" stroke-linecap="square" stroke-miterlimit="1"  points="147.59 42.2 147.17 43.64 146.73 45.08 146.29 46.51 147.25 48.4 148.67 48.87 150.57 47.87 151.03 46.4 151.48 44.92 151.91 43.44 143.26 40.96 "/><polyline fill="none" stroke="#444" stroke-width="0.5" stroke-linecap="square" stroke-miterlimit="1"  points="144.16 56.95 144.71 55.54 145.24 54.12 145.77 52.7 146.27 51.27 "/><polyline fill="none" stroke="#444" stroke-width="0.5" stroke-linecap="square" stroke-miterlimit="1"  points="141.37 55.85 141.91 54.46 142.43 53.07 142.95 51.68 143.44 50.28 "/><polyline fill="none" stroke="#444" stroke-width="0.5" stroke-linecap="square" stroke-miterlimit="1"  points="143.3 66.56 143.94 65.16 144.57 63.75 145.18 62.33 145.79 60.91 143.02 59.75 142.43 61.15 141.82 62.54 141.21 63.92 139.21 64.67 136.49 63.4 135.74 61.45 136.33 60.12 136.91 58.78 138.87 58.02 "/><polyline fill="none" stroke="#444" stroke-width="0.5" stroke-linecap="square" stroke-miterlimit="1"  points="134.47 74.03 133.74 75.34 133 76.64 132.24 77.94 132.76 80 134.04 80.78 136.12 80.22 136.89 78.89 137.66 77.55 138.41 76.2 130.53 71.86 "/><polyline fill="none" stroke="#444" stroke-width="0.5" stroke-linecap="square" stroke-miterlimit="1"  points="126.09 79.39 128.63 80.98 130.36 83.86 132.04 86.78 128.69 86.39 125.37 85.95 122.89 84.25 "/><polyline fill="none" stroke="#444" stroke-width="0.5" stroke-linecap="square" stroke-miterlimit="1"  points="128.63 80.98 127.83 82.24 127.02 83.48 126.2 84.72 125.37 85.95 "/><polyline fill="none" stroke="#444" stroke-width="0.5" stroke-linecap="square" stroke-miterlimit="1"  points="122.49 94.99 123.41 93.78 124.32 92.57 125.22 91.35 126.1 90.13 "/><polyline fill="none" stroke="#444" stroke-width="0.5" stroke-linecap="square" stroke-miterlimit="1"  points="120.12 93.15 121.02 91.97 121.91 90.78 122.79 89.59 123.66 88.38 "/><polyline fill="none" stroke="#444" stroke-width="0.5" stroke-linecap="square" stroke-miterlimit="1"  points="121.77 98.3 121.96 100.44 115.02 94.72 "/><polyline fill="none" stroke="#444" stroke-width="0.5" stroke-linecap="square" stroke-miterlimit="1"  points="114.09 95.84 115.02 94.72 115.94 93.59 "/><polyline fill="none" stroke="#444" stroke-width="0.5" stroke-linecap="square" stroke-miterlimit="1"  points="111.54 105.45 112.57 104.36 113.58 103.25 114.59 102.14 116.71 102 117.84 102.99 117.95 105.13 116.91 106.28 115.87 107.42 113.72 107.51 110.45 104.42 110.37 102.32 110.25 100.22 111.23 99.14 "/></g></g><g class="guides gearguides" opacity="0.2"><circle class="pitch" fill="none" stroke="#f00" stroke-miterlimit="10" cx="0" cy="0" r="180"/><circle class="outer" fill="none" stroke="#ccc" stroke-miterlimit="10" stroke-dasharray="2,2" cx="0" cy="0" r="190"/><circle class="base" fill="none" stroke="#00f" stroke-miterlimit="10" stroke-dasharray="2,2" cx="0" cy="0" r="170.19"/></g></svg>